<?xml version="1.0" encoding="UTF-8" standalone="no"?><svg xmlns="http://www.w3.org/2000/svg" xmlns:xlink="http://www.w3.org/1999/xlink" contentScriptType="application/ecmascript" contentStyleType="text/css" height="482px" preserveAspectRatio="none" style="width:1166px;height:482px;" version="1.1" viewBox="0 0 1166 482" width="1166px" zoomAndPan="magnify"><defs><filter height="300%" id="f1aetyt53dg95k" width="300%" x="-1" y="-1"><feGaussianBlur result="blurOut" stdDeviation="2.0"/><feColorMatrix in="blurOut" result="blurOut2" type="matrix" values="0 0 0 0 0 0 0 0 0 0 0 0 0 0 0 0 0 0 .4 0"/><feOffset dx="4.0" dy="4.0" in="blurOut2" result="blurOut3"/><feBlend in="SourceGraphic" in2="blurOut3" mode="normal"/></filter></defs><g><!--cluster ##50169--><!--cluster ##50181--><!--cluster ##50190--><!--class Role--><a target="_top" xlink:actuate="onRequest" xlink:href="../Role.html" xlink:show="new" xlink:title="Role of a party in an activity." xlink:type="simple"><rect fill="#FEFEEE" filter="url(#f1aetyt53dg95k)" height="44.7734" id="Role" style="stroke: #A80036; stroke-width: 1.5;" width="175" x="223.75" y="40.5"/><rect fill="#FEFEEE" height="23.9688" style="stroke: #A80036; stroke-width: 1.5;" width="175" x="223.75" y="40.5"/><text fill="#000000" font-family="sans-serif" font-size="12" lengthAdjust="spacingAndGlyphs" textLength="27" x="297.75" y="56.6387">Role</text><line style="stroke: #A80036; stroke-width: 1.5;" x1="224.75" x2="397.75" y1="64.4688" y2="64.4688"/><ellipse cx="234.75" cy="76.3711" fill="#84BE84" rx="3" ry="3" style="stroke: #038048; stroke-width: 1.0;"/><text fill="#000000" font-family="sans-serif" font-size="11" lengthAdjust="spacingAndGlyphs" textLength="53" x="243.75" y="78.6792">PartyRole</text><text fill="#000000" font-family="sans-serif" font-size="11" font-style="italic" lengthAdjust="spacingAndGlyphs" textLength="92" x="300.75" y="78.6792">(PartyRoleCode)</text></a><!--class AccountPartyRole--><a target="_top" xlink:actuate="onRequest" xlink:href="../AccountPartyRole.html" xlink:show="new" xlink:title="Role played by a party in the context of account operations." xlink:type="simple"><rect fill="#FEFECE" filter="url(#f1aetyt53dg95k)" height="23.9688" id="AccountPartyRole" style="stroke: #A80036; stroke-width: 1.5;" width="116" x="265.5" y="166"/><rect fill="#FEFECE" height="23.9688" style="stroke: #A80036; stroke-width: 1.5;" width="116" x="265.5" y="166"/><text fill="#000000" font-family="sans-serif" font-size="12" lengthAdjust="spacingAndGlyphs" textLength="110" x="268.5" y="182.1387">AccountPartyRole</text></a><!--class InvestmentAccountPartyRole--><a target="_top" xlink:actuate="onRequest" xlink:href="../InvestmentAccountPartyRole.html" xlink:show="new" xlink:title="Specifies roles played by a party that are related to an investment account." xlink:type="simple"><rect fill="#FEFEEE" filter="url(#f1aetyt53dg95k)" height="23.9688" id="InvestmentAccountPartyRole" style="stroke: #A80036; stroke-width: 1.5;" width="185" x="37.75" y="272"/><rect fill="#FEFEEE" height="23.9688" style="stroke: #A80036; stroke-width: 1.5;" width="185" x="37.75" y="272"/><text fill="#000000" font-family="sans-serif" font-size="12" lengthAdjust="spacingAndGlyphs" textLength="179" x="40.75" y="288.1387">InvestmentAccountPartyRole</text></a><!--class RepresentativeOfficer--><a target="_top" xlink:actuate="onRequest" xlink:href="../RepresentativeOfficer.html" xlink:show="new" xlink:title="Officer who has some rights to represent a given organisation. In account management, it is the person to be contacted by the account servicer." xlink:type="simple"><rect fill="#FEFEEE" filter="url(#f1aetyt53dg95k)" height="23.9688" id="RepresentativeOfficer" style="stroke: #A80036; stroke-width: 1.5;" width="141" x="257.75" y="272"/><rect fill="#FEFEEE" height="23.9688" style="stroke: #A80036; stroke-width: 1.5;" width="141" x="257.75" y="272"/><text fill="#000000" font-family="sans-serif" font-size="12" lengthAdjust="spacingAndGlyphs" textLength="135" x="260.75" y="288.1387">RepresentativeOfficer</text></a><!--class RolePlayer--><a target="_top" xlink:actuate="onRequest" xlink:href="../RolePlayer.html" xlink:show="new" xlink:title="Type of entity that plays a specific role in a specific context." xlink:type="simple"><rect fill="#EEEEEE" filter="url(#f1aetyt53dg95k)" height="23.9688" id="RolePlayer" style="stroke: #A80036; stroke-width: 1.5;" width="71" x="741.75" y="448"/><rect fill="#EEEEEE" height="23.9688" style="stroke: #A80036; stroke-width: 1.5;" width="71" x="741.75" y="448"/><text fill="#000000" font-family="sans-serif" font-size="12" lengthAdjust="spacingAndGlyphs" textLength="65" x="744.75" y="464.1387">RolePlayer</text></a><!--class ContactPersonRole--><a target="_top" xlink:actuate="onRequest" xlink:href="../ContactPersonRole.html" xlink:show="new" xlink:title="Person to be contacted in a given organisation. In the corporate action domain (including meeting notifications) , it is the contact person at the party organising the meeting, at the issuer or at an intermediary." xlink:type="simple"><rect fill="#EEEEEE" filter="url(#f1aetyt53dg95k)" height="23.9688" id="ContactPersonRole" style="stroke: #A80036; stroke-width: 1.5;" width="126" x="694" y="362"/><rect fill="#EEEEEE" height="23.9688" style="stroke: #A80036; stroke-width: 1.5;" width="126" x="694" y="362"/><text fill="#000000" font-family="sans-serif" font-size="12" lengthAdjust="spacingAndGlyphs" textLength="120" x="697" y="378.1387">ContactPersonRole</text></a><!--class CounterpartyRisk--><a target="_top" xlink:actuate="onRequest" xlink:href="../CounterpartyRisk.html" xlink:show="new" xlink:title="Calculation of the exposure amount that one party has vis-a-vis one counterparty or a central system, based on its credit risk." xlink:type="simple"><rect fill="#EEEEEE" filter="url(#f1aetyt53dg95k)" height="23.9688" id="CounterpartyRisk" style="stroke: #A80036; stroke-width: 1.5;" width="113" x="700.75" y="272"/><rect fill="#EEEEEE" height="23.9688" style="stroke: #A80036; stroke-width: 1.5;" width="113" x="700.75" y="272"/><text fill="#000000" font-family="sans-serif" font-size="12" lengthAdjust="spacingAndGlyphs" textLength="107" x="703.75" y="288.1387">CounterpartyRisk</text></a><!--class Entry--><a target="_top" xlink:actuate="onRequest" xlink:href="../Entry.html" xlink:show="new" xlink:title="Posting to an account that results in an increase or decrease to a balance." xlink:type="simple"><rect fill="#EEEEEE" filter="url(#f1aetyt53dg95k)" height="23.9688" id="Entry" style="stroke: #A80036; stroke-width: 1.5;" width="38" x="694" y="166"/><rect fill="#EEEEEE" height="23.9688" style="stroke: #A80036; stroke-width: 1.5;" width="38" x="694" y="166"/><text fill="#000000" font-family="sans-serif" font-size="12" lengthAdjust="spacingAndGlyphs" textLength="32" x="697" y="182.1387">Entry</text></a><!--class Account--><a target="_top" xlink:actuate="onRequest" xlink:href="../Account.html" xlink:show="new" xlink:title="Record of transactions in specific types of assets, maintained by a servicing party on behalf of one or more owning parties. Business relationship between an account servicer and one or more account owners." xlink:type="simple"><rect fill="#EEEEEE" filter="url(#f1aetyt53dg95k)" height="23.9688" id="Account" style="stroke: #A80036; stroke-width: 1.5;" width="57" x="455.75" y="272"/><rect fill="#EEEEEE" height="23.9688" style="stroke: #A80036; stroke-width: 1.5;" width="57" x="455.75" y="272"/><text fill="#000000" font-family="sans-serif" font-size="12" lengthAdjust="spacingAndGlyphs" textLength="51" x="458.75" y="288.1387">Account</text></a><!--link Role to AccountPartyRole--><path d="M315.413,105.559 C317.707,127.159 320.334,151.898 321.817,165.865 " fill="none" id="Role-AccountPartyRole" style="stroke: #A80036; stroke-width: 1.0;"/><polygon fill="none" points="308.437,106.148,313.285,85.52,322.358,104.669,308.437,106.148" style="stroke: #A80036; stroke-width: 1.0;"/><!--link AccountPartyRole to InvestmentAccountPartyRole--><path d="M284.497,199.748 C244.162,221.483 182.336,254.798 150.506,271.95 " fill="none" id="AccountPartyRole-InvestmentAccountPartyRole" style="stroke: #A80036; stroke-width: 1.0;"/><polygon fill="none" points="281.418,193.455,302.346,190.13,288.06,205.78,281.418,193.455" style="stroke: #A80036; stroke-width: 1.0;"/><!--link AccountPartyRole to RepresentativeOfficer--><path d="M324.501,210.217 C325.505,231.114 326.768,257.371 327.469,271.95 " fill="none" id="AccountPartyRole-RepresentativeOfficer" style="stroke: #A80036; stroke-width: 1.0;"/><polygon fill="none" points="317.504,210.443,323.535,190.13,331.488,209.771,317.504,210.443" style="stroke: #A80036; stroke-width: 1.0;"/><!--link ContactPersonRole to RolePlayer--><!--link CounterpartyRisk to ContactPersonRole--><!--link Entry to CounterpartyRisk--><!--link Role to RolePlayer--><path d="M398.464,67.271 C606.584,76.218 1114,105.376 1114,177 C1114,177 1114,177 1114,375 C1114,435.4496 907.27,452.737 817.642,457.3913 " fill="none" id="Role-RolePlayer" style="stroke: #A80036; stroke-width: 1.0;"/><polygon fill="#A80036" points="812.428,457.6547,821.6188,461.1944,817.4216,457.4018,821.2142,453.2047,812.428,457.6547" style="stroke: #A80036; stroke-width: 1.0;"/><text fill="#000000" font-family="sans-serif" font-size="13" lengthAdjust="spacingAndGlyphs" textLength="39" x="1115" y="288.0669">Player</text><text fill="#000000" font-family="sans-serif" font-size="13" lengthAdjust="spacingAndGlyphs" textLength="7" x="820.8888" y="451.3671">*</text><!--link Role to ContactPersonRole--><path d="M398.506,69.37 C552.395,79.736 858.203,104.809 889,142 C929.727,191.183 865.306,279.28 830,322 C817.237,337.444 798.688,350.321 783.483,359.272 " fill="none" id="Role-ContactPersonRole" style="stroke: #A80036; stroke-width: 1.0;"/><polygon fill="#A80036" points="778.881,361.923,788.6763,360.897,783.2137,359.4274,784.6833,353.9648,778.881,361.923" style="stroke: #A80036; stroke-width: 1.0;"/><text fill="#000000" font-family="sans-serif" font-size="13" lengthAdjust="spacingAndGlyphs" textLength="121" x="895" y="233.0669">ContactPersonRole</text><text fill="#000000" font-family="sans-serif" font-size="13" lengthAdjust="spacingAndGlyphs" textLength="8" x="775.6838" y="350.9447">1</text><!--link Role to CounterpartyRisk--><path d="M398.408,67.134 C512.724,73.236 703.798,90.981 749,142 C779.92,176.898 769.318,237.753 761.82,266.745 " fill="none" id="Role-CounterpartyRisk" style="stroke: #A80036; stroke-width: 1.0;"/><polygon fill="#A80036" points="760.466,271.774,766.6661,264.1216,761.7645,266.9456,758.9406,262.044,760.466,271.774" style="stroke: #A80036; stroke-width: 1.0;"/><text fill="#000000" font-family="sans-serif" font-size="13" lengthAdjust="spacingAndGlyphs" textLength="109" x="770" y="182.0669">CounterpartyRisk</text><text fill="#000000" font-family="sans-serif" font-size="13" lengthAdjust="spacingAndGlyphs" textLength="24" x="732.2251" y="261.0026">0..1</text><!--link Role to Entry--><path d="M387.559,85.52 C479.992,111.503 630.31,153.756 688.715,170.174 " fill="none" id="Role-Entry" style="stroke: #A80036; stroke-width: 1.0;"/><polygon fill="#A80036" points="693.748,171.588,686.1662,165.3018,688.9345,170.235,684.0014,173.0033,693.748,171.588" style="stroke: #A80036; stroke-width: 1.0;"/><text fill="#000000" font-family="sans-serif" font-size="13" lengthAdjust="spacingAndGlyphs" textLength="33" x="561" y="129.0669">Entry</text><text fill="#000000" font-family="sans-serif" font-size="13" lengthAdjust="spacingAndGlyphs" textLength="8" x="677.9271" y="163.484">1</text><!--link AccountPartyRole to Account--><path d="M340.23,190.13 C369.765,209.209 429.998,248.117 462.333,269.004 " fill="none" id="AccountPartyRole-Account" style="stroke: #A80036; stroke-width: 1.0;"/><polygon fill="#A80036" points="466.894,271.95,461.5042,263.7068,462.694,269.2371,457.1636,270.4268,466.894,271.95" style="stroke: #A80036; stroke-width: 1.0;"/><text fill="#000000" font-family="sans-serif" font-size="13" lengthAdjust="spacingAndGlyphs" textLength="52" x="415" y="233.0669">Account</text><text fill="#000000" font-family="sans-serif" font-size="13" lengthAdjust="spacingAndGlyphs" textLength="7" x="451.381" y="260.981">*</text><!--link Entry to Account--><path d="M693.869,187.688 C653.754,205.907 560.622,248.202 513.07,269.798 " fill="none" id="Entry-Account" style="stroke: #A80036; stroke-width: 1.0;"/><polygon fill="#A80036" points="508.336,271.948,518.1845,271.8694,512.8887,269.8809,514.8772,264.5851,508.336,271.948" style="stroke: #A80036; stroke-width: 1.0;"/><text fill="#000000" font-family="sans-serif" font-size="13" lengthAdjust="spacingAndGlyphs" textLength="52" x="621" y="233.0669">Account</text><text fill="#000000" font-family="sans-serif" font-size="13" lengthAdjust="spacingAndGlyphs" textLength="7" x="507.0687" y="260.9783">*</text><!--link Account to Account--><path d="M512.508,275.984 C530.181,274.051 547,276.723 547,284 C547,290.538 533.424,293.359 517.85,292.463 " fill="none" id="Account-Account" style="stroke: #A80036; stroke-width: 1.0;"/><polygon fill="#A80036" points="512.508,292.016,521.1443,296.7504,517.4907,292.4317,521.8094,288.7781,512.508,292.016" style="stroke: #A80036; stroke-width: 1.0;"/><text fill="#000000" font-family="sans-serif" font-size="13" lengthAdjust="spacingAndGlyphs" textLength="94" x="553" y="288.0669">ParentAccount</text><text fill="#000000" font-family="sans-serif" font-size="13" lengthAdjust="spacingAndGlyphs" textLength="8" x="520.7741" y="287.9799">1</text></g></svg>