<?xml version="1.0" encoding="UTF-8" standalone="no"?><svg xmlns="http://www.w3.org/2000/svg" xmlns:xlink="http://www.w3.org/1999/xlink" contentScriptType="application/ecmascript" contentStyleType="text/css" height="854px" preserveAspectRatio="none" style="width:1404px;height:854px;" version="1.1" viewBox="0 0 1404 854" width="1404px" zoomAndPan="magnify"><defs><filter height="300%" id="feddhaosxbn8s" width="300%" x="-1" y="-1"><feGaussianBlur result="blurOut" stdDeviation="2.0"/><feColorMatrix in="blurOut" result="blurOut2" type="matrix" values="0 0 0 0 0 0 0 0 0 0 0 0 0 0 0 0 0 0 .4 0"/><feOffset dx="4.0" dy="4.0" in="blurOut2" result="blurOut3"/><feBlend in="SourceGraphic" in2="blurOut3" mode="normal"/></filter></defs><g><!--cluster ##60279--><!--cluster ##60288--><!--class Adjustment--><a target="_top" xlink:actuate="onRequest" xlink:href="../Adjustment.html" xlink:show="new" xlink:title="Modification on the value of goods and / or services. For example: rebate, discount." xlink:type="simple"><rect fill="#FEFECE" filter="url(#feddhaosxbn8s)" height="134.4063" id="Adjustment" style="stroke: #A80036; stroke-width: 1.5;" width="268" x="423" y="40"/><rect fill="#FEFECE" height="23.9688" style="stroke: #A80036; stroke-width: 1.5;" width="268" x="423" y="40"/><text fill="#000000" font-family="sans-serif" font-size="12" lengthAdjust="spacingAndGlyphs" textLength="71" x="521.5" y="56.1387">Adjustment</text><line style="stroke: #A80036; stroke-width: 1.5;" x1="424" x2="690" y1="63.9688" y2="63.9688"/><ellipse cx="434" cy="75.8711" fill="#84BE84" rx="3" ry="3" style="stroke: #038048; stroke-width: 1.0;"/><text fill="#000000" font-family="sans-serif" font-size="11" lengthAdjust="spacingAndGlyphs" textLength="43" x="443" y="78.1792">Amount</text><text fill="#000000" font-family="sans-serif" font-size="11" font-style="italic" lengthAdjust="spacingAndGlyphs" textLength="126" x="490" y="78.1792">(CurrencyAndAmount)</text><ellipse cx="434" cy="88.6758" fill="#84BE84" rx="3" ry="3" style="stroke: #038048; stroke-width: 1.0;"/><text fill="#000000" font-family="sans-serif" font-size="11" lengthAdjust="spacingAndGlyphs" textLength="66" x="443" y="90.9839">ChargeRate</text><text fill="#000000" font-family="sans-serif" font-size="11" font-style="italic" lengthAdjust="spacingAndGlyphs" textLength="98" x="513" y="90.9839">(PercentageRate)</text><ellipse cx="434" cy="101.4805" fill="#84BE84" rx="3" ry="3" style="stroke: #038048; stroke-width: 1.0;"/><text fill="#000000" font-family="sans-serif" font-size="11" lengthAdjust="spacingAndGlyphs" textLength="103" x="443" y="103.7886">CalculationMethod</text><text fill="#000000" font-family="sans-serif" font-size="11" font-style="italic" lengthAdjust="spacingAndGlyphs" textLength="116" x="550" y="103.7886">(TaxationBasisCode)</text><ellipse cx="434" cy="114.2852" fill="#84BE84" rx="3" ry="3" style="stroke: #038048; stroke-width: 1.0;"/><text fill="#000000" font-family="sans-serif" font-size="11" lengthAdjust="spacingAndGlyphs" textLength="50" x="443" y="116.5933">Direction</text><text fill="#000000" font-family="sans-serif" font-size="11" font-style="italic" lengthAdjust="spacingAndGlyphs" textLength="151" x="497" y="116.5933">(AdjustmentDirectionCode)</text><ellipse cx="434" cy="127.0898" fill="#84BE84" rx="3" ry="3" style="stroke: #038048; stroke-width: 1.0;"/><text fill="#000000" font-family="sans-serif" font-size="11" lengthAdjust="spacingAndGlyphs" textLength="42" x="443" y="129.3979">Reason</text><text fill="#000000" font-family="sans-serif" font-size="11" font-style="italic" lengthAdjust="spacingAndGlyphs" textLength="142" x="489" y="129.3979">(Max4AlphaNumericText)</text><ellipse cx="434" cy="139.8945" fill="#84BE84" rx="3" ry="3" style="stroke: #038048; stroke-width: 1.0;"/><text fill="#000000" font-family="sans-serif" font-size="11" lengthAdjust="spacingAndGlyphs" textLength="146" x="443" y="142.2026">AllowanceChargeIndicator</text><text fill="#000000" font-family="sans-serif" font-size="11" font-style="italic" lengthAdjust="spacingAndGlyphs" textLength="92" x="593" y="142.2026">(YesNoIndicator)</text><ellipse cx="434" cy="152.6992" fill="#84BE84" rx="3" ry="3" style="stroke: #038048; stroke-width: 1.0;"/><text fill="#000000" font-family="sans-serif" font-size="11" lengthAdjust="spacingAndGlyphs" textLength="90" x="443" y="155.0073">ChargeIndicator</text><text fill="#000000" font-family="sans-serif" font-size="11" font-style="italic" lengthAdjust="spacingAndGlyphs" textLength="92" x="537" y="155.0073">(YesNoIndicator)</text><ellipse cx="434" cy="165.5039" fill="#84BE84" rx="3" ry="3" style="stroke: #038048; stroke-width: 1.0;"/><text fill="#000000" font-family="sans-serif" font-size="11" lengthAdjust="spacingAndGlyphs" textLength="27" x="443" y="167.812">Type</text><text fill="#000000" font-family="sans-serif" font-size="11" font-style="italic" lengthAdjust="spacingAndGlyphs" textLength="129" x="474" y="167.812">(AdjustmentTypeCode)</text></a><!--class Commission--><a target="_top" xlink:actuate="onRequest" xlink:href="../Commission.html" xlink:show="new" xlink:title="Amount of money due to a party as compensation for a service." xlink:type="simple"><rect fill="#FEFEEE" filter="url(#feddhaosxbn8s)" height="23.9688" id="Commission" style="stroke: #A80036; stroke-width: 1.5;" width="80" x="423" y="252"/><rect fill="#FEFEEE" height="23.9688" style="stroke: #A80036; stroke-width: 1.5;" width="80" x="423" y="252"/><text fill="#000000" font-family="sans-serif" font-size="12" lengthAdjust="spacingAndGlyphs" textLength="74" x="426" y="268.1387">Commission</text></a><!--class Charges--><a target="_top" xlink:actuate="onRequest" xlink:href="../Charges.html" xlink:show="new" xlink:title="Amount of money associated with a service." xlink:type="simple"><rect fill="#FEFEEE" filter="url(#feddhaosxbn8s)" height="23.9688" id="Charges" style="stroke: #A80036; stroke-width: 1.5;" width="58" x="538.5" y="252"/><rect fill="#FEFEEE" height="23.9688" style="stroke: #A80036; stroke-width: 1.5;" width="58" x="538.5" y="252"/><text fill="#000000" font-family="sans-serif" font-size="12" lengthAdjust="spacingAndGlyphs" textLength="52" x="541.5" y="268.1387">Charges</text></a><!--class Payment--><a target="_top" xlink:actuate="onRequest" xlink:href="../Payment.html" xlink:show="new" xlink:title="Payment information and processes required to transfer cash end to end from the debtor to the creditor." xlink:type="simple"><rect fill="#EEEEEE" filter="url(#feddhaosxbn8s)" height="23.9688" id="Payment" style="stroke: #A80036; stroke-width: 1.5;" width="60" x="80.5" y="95"/><rect fill="#EEEEEE" height="23.9688" style="stroke: #A80036; stroke-width: 1.5;" width="60" x="80.5" y="95"/><text fill="#000000" font-family="sans-serif" font-size="12" lengthAdjust="spacingAndGlyphs" textLength="54" x="83.5" y="111.1387">Payment</text></a><!--class LineItem--><a target="_top" xlink:actuate="onRequest" xlink:href="../LineItem.html" xlink:show="new" xlink:title="Unit of information  showing the related  provision of products and/or services and monetary summations reported as a discrete line item." xlink:type="simple"><rect fill="#EEEEEE" filter="url(#feddhaosxbn8s)" height="23.9688" id="LineItem" style="stroke: #A80036; stroke-width: 1.5;" width="58" x="309.5" y="818"/><rect fill="#EEEEEE" height="23.9688" style="stroke: #A80036; stroke-width: 1.5;" width="58" x="309.5" y="818"/><text fill="#000000" font-family="sans-serif" font-size="12" lengthAdjust="spacingAndGlyphs" textLength="52" x="312.5" y="834.1387">LineItem</text></a><!--class Price--><a target="_top" xlink:actuate="onRequest" xlink:href="../Price.html" xlink:show="new" xlink:title="Amount of money for which goods, services or assets are offered, sold, or bought." xlink:type="simple"><rect fill="#EEEEEE" filter="url(#feddhaosxbn8s)" height="23.9688" id="Price" style="stroke: #A80036; stroke-width: 1.5;" width="37" x="319.75" y="732"/><rect fill="#EEEEEE" height="23.9688" style="stroke: #A80036; stroke-width: 1.5;" width="37" x="319.75" y="732"/><text fill="#000000" font-family="sans-serif" font-size="12" lengthAdjust="spacingAndGlyphs" textLength="31" x="322.75" y="748.1387">Price</text></a><!--class CollateralManagement--><a target="_top" xlink:actuate="onRequest" xlink:href="../CollateralManagement.html" xlink:show="new" xlink:title="Set of operations relative to the management of collateral, variation margins, default fund participation and independent amount." xlink:type="simple"><rect fill="#EEEEEE" filter="url(#feddhaosxbn8s)" height="23.9688" id="CollateralManagement" style="stroke: #A80036; stroke-width: 1.5;" width="147" x="219.75" y="646"/><rect fill="#EEEEEE" height="23.9688" style="stroke: #A80036; stroke-width: 1.5;" width="147" x="219.75" y="646"/><text fill="#000000" font-family="sans-serif" font-size="12" lengthAdjust="spacingAndGlyphs" textLength="141" x="222.75" y="662.1387">CollateralManagement</text></a><!--class Balance--><a target="_top" xlink:actuate="onRequest" xlink:href="../Balance.html" xlink:show="new" xlink:title="Numerical representation of the net increases and decreases in an account at a specific point in time." xlink:type="simple"><rect fill="#EEEEEE" filter="url(#feddhaosxbn8s)" height="23.9688" id="Balance" style="stroke: #A80036; stroke-width: 1.5;" width="56" x="284.5" y="560"/><rect fill="#EEEEEE" height="23.9688" style="stroke: #A80036; stroke-width: 1.5;" width="56" x="284.5" y="560"/><text fill="#000000" font-family="sans-serif" font-size="12" lengthAdjust="spacingAndGlyphs" textLength="50" x="287.5" y="576.1387">Balance</text></a><!--class ChargePartyRole--><a target="_top" xlink:actuate="onRequest" xlink:href="../ChargePartyRole.html" xlink:show="new" xlink:title="Role played by a party in the context of a paymentof charges." xlink:type="simple"><rect fill="#EEEEEE" filter="url(#feddhaosxbn8s)" height="23.9688" id="ChargePartyRole" style="stroke: #A80036; stroke-width: 1.5;" width="110" x="257" y="458"/><rect fill="#EEEEEE" height="23.9688" style="stroke: #A80036; stroke-width: 1.5;" width="110" x="257" y="458"/><text fill="#000000" font-family="sans-serif" font-size="12" lengthAdjust="spacingAndGlyphs" textLength="104" x="260" y="474.1387">ChargePartyRole</text></a><!--class DateTimePeriod--><a target="_top" xlink:actuate="onRequest" xlink:href="../DateTimePeriod.html" xlink:show="new" xlink:title="Time span defined by a start date and time, and an end date and time." xlink:type="simple"><rect fill="#EEEEEE" filter="url(#feddhaosxbn8s)" height="23.9688" id="DateTimePeriod" style="stroke: #A80036; stroke-width: 1.5;" width="105" x="259.75" y="356"/><rect fill="#EEEEEE" height="23.9688" style="stroke: #A80036; stroke-width: 1.5;" width="105" x="259.75" y="356"/><text fill="#000000" font-family="sans-serif" font-size="12" lengthAdjust="spacingAndGlyphs" textLength="99" x="262.75" y="372.1387">DateTimePeriod</text></a><!--class CurrencyExchange--><a target="_top" xlink:actuate="onRequest" xlink:href="../CurrencyExchange.html" xlink:show="new" xlink:title="Information needed to process a currency exchange or conversion." xlink:type="simple"><rect fill="#EEEEEE" filter="url(#feddhaosxbn8s)" height="23.9688" id="CurrencyExchange" style="stroke: #A80036; stroke-width: 1.5;" width="122" x="245" y="252"/><rect fill="#EEEEEE" height="23.9688" style="stroke: #A80036; stroke-width: 1.5;" width="122" x="245" y="252"/><text fill="#000000" font-family="sans-serif" font-size="12" lengthAdjust="spacingAndGlyphs" textLength="116" x="248" y="268.1387">CurrencyExchange</text></a><!--class SecuritiesOrder--><a target="_top" xlink:actuate="onRequest" xlink:href="../SecuritiesOrder.html" xlink:show="new" xlink:title="Intention to transfer an ownership of a financial instrument." xlink:type="simple"><rect fill="#EEEEEE" filter="url(#feddhaosxbn8s)" height="23.9688" id="SecuritiesOrder" style="stroke: #A80036; stroke-width: 1.5;" width="103" x="118.75" y="458"/><rect fill="#EEEEEE" height="23.9688" style="stroke: #A80036; stroke-width: 1.5;" width="103" x="118.75" y="458"/><text fill="#000000" font-family="sans-serif" font-size="12" lengthAdjust="spacingAndGlyphs" textLength="97" x="121.75" y="474.1387">SecuritiesOrder</text></a><!--class Tax--><a target="_top" xlink:actuate="onRequest" xlink:href="../Tax.html" xlink:show="new" xlink:title="Amount of money due to the government or tax authority, according to various pre-defined parameters such as thresholds or income." xlink:type="simple"><rect fill="#EEEEEE" filter="url(#feddhaosxbn8s)" height="23.9688" id="Tax" style="stroke: #A80036; stroke-width: 1.5;" width="27" x="157.75" y="356"/><rect fill="#EEEEEE" height="23.9688" style="stroke: #A80036; stroke-width: 1.5;" width="27" x="157.75" y="356"/><text fill="#000000" font-family="sans-serif" font-size="12" lengthAdjust="spacingAndGlyphs" textLength="21" x="160.75" y="372.1387">Tax</text></a><!--link Adjustment to Commission--><path d="M506.473,191.316 C491.844,215.438 477.674,238.804 469.673,251.996 " fill="none" id="Adjustment-Commission" style="stroke: #A80036; stroke-width: 1.0;"/><polygon fill="none" points="500.507,187.655,516.863,174.184,512.477,194.914,500.507,187.655" style="stroke: #A80036; stroke-width: 1.0;"/><!--link Adjustment to Charges--><path d="M562.578,194.457 C564.061,217.45 565.476,239.377 566.29,251.996 " fill="none" id="Adjustment-Charges" style="stroke: #A80036; stroke-width: 1.0;"/><polygon fill="none" points="555.572,194.593,561.27,174.184,569.543,193.691,555.572,194.593" style="stroke: #A80036; stroke-width: 1.0;"/><!--link LineItem to Payment--><!--link Price to LineItem--><!--link CollateralManagement to Price--><!--link Balance to CollateralManagement--><!--link ChargePartyRole to Balance--><!--link DateTimePeriod to ChargePartyRole--><!--link CurrencyExchange to DateTimePeriod--><!--link SecuritiesOrder to CurrencyExchange--><!--link Tax to SecuritiesOrder--><!--link Adjustment to Payment--><path d="M422.834,107 C326.592,107 203.897,107 144.845,107 " fill="none" id="Adjustment-Payment" style="stroke: #A80036; stroke-width: 1.0;"/><polygon fill="#A80036" points="139.675,107,148.675,111,144.675,107,148.675,103,139.675,107" style="stroke: #A80036; stroke-width: 1.0;"/><text fill="#000000" font-family="sans-serif" font-size="13" lengthAdjust="spacingAndGlyphs" textLength="57" x="252" y="99.0669">Payment</text><text fill="#000000" font-family="sans-serif" font-size="13" lengthAdjust="spacingAndGlyphs" textLength="7" x="148.4564" y="100.8046">*</text><!--link Adjustment to LineItem--><path d="M691.077,109.367 C902.11,115.196 1288,142.35 1288,263 C1288,263 1288,263 1288,745 C1288,791.9864 540.892,821.697 371.76,827.821 " fill="none" id="Adjustment-LineItem" style="stroke: #A80036; stroke-width: 1.0;"/><polygon fill="#A80036" points="366.69,828.0037,375.8282,831.6771,371.6868,827.8237,375.5402,823.6823,366.69,828.0037" style="stroke: #A80036; stroke-width: 1.0;"/><text fill="#000000" font-family="sans-serif" font-size="13" lengthAdjust="spacingAndGlyphs" textLength="103" x="1289" y="525.0669">RelatedLineItem</text><text fill="#000000" font-family="sans-serif" font-size="13" lengthAdjust="spacingAndGlyphs" textLength="24" x="375.4816" y="821.7925">0..1</text><!--link Adjustment to Price--><path d="M691.068,110.306 C805.905,117.114 972.857,138.778 1103,204 C1199.22,252.221 1236.66,328.764 1195,428 C1156.68,519.282 1122.38,535.634 1036,584 C797.566,717.504 453.816,738.97 361.537,742.37 " fill="none" id="Adjustment-Price" style="stroke: #A80036; stroke-width: 1.0;"/><polygon fill="#A80036" points="356.325,742.553,365.46,746.2343,361.3219,742.3773,365.1789,738.2392,356.325,742.553" style="stroke: #A80036; stroke-width: 1.0;"/><text fill="#000000" font-family="sans-serif" font-size="13" lengthAdjust="spacingAndGlyphs" textLength="31" x="1181" y="474.0669">Price</text><text fill="#000000" font-family="sans-serif" font-size="13" lengthAdjust="spacingAndGlyphs" textLength="24" x="364.7836" y="735.8454">0..1</text><!--link Adjustment to CollateralManagement--><path d="M691.046,121.232 C820.668,136.14 1006.02,163.674 1066,204 C1133.8,249.578 1164.95,312.458 1119,380 C1098.57,410.024 1066.83,382.6 1043,410 C990.792,470.027 1060.9,531.642 1001,584 C954.333,624.794 545.893,646.485 371.444,653.959 " fill="none" id="Adjustment-CollateralManagement" style="stroke: #A80036; stroke-width: 1.0;"/><polygon fill="#A80036" points="366.352,654.176,375.5141,657.7893,371.3475,653.9632,375.1736,649.7965,366.352,654.176" style="stroke: #A80036; stroke-width: 1.0;"/><text fill="#000000" font-family="sans-serif" font-size="13" lengthAdjust="spacingAndGlyphs" textLength="145" x="1044" y="423.0669">CollateralManagement</text><text fill="#000000" font-family="sans-serif" font-size="13" lengthAdjust="spacingAndGlyphs" textLength="8" x="374.785" y="648.9039">1</text><!--link Adjustment to Balance--><path d="M691.076,115.696 C866.257,131.59 1141.36,179.932 1057,326 C1043.66,349.105 1028.09,342.634 1005,356 C949.844,387.923 940.035,403.999 881,428 C780.091,469.025 450.601,541.321 344.933,563.995 " fill="none" id="Adjustment-Balance" style="stroke: #A80036; stroke-width: 1.0;"/><polygon fill="#A80036" points="339.774,565.101,349.4122,567.1272,344.6631,564.0537,347.7366,559.3047,339.774,565.101" style="stroke: #A80036; stroke-width: 1.0;"/><text fill="#000000" font-family="sans-serif" font-size="13" lengthAdjust="spacingAndGlyphs" textLength="107" x="1006" y="372.0669">AdjustedBalance</text><text fill="#000000" font-family="sans-serif" font-size="13" lengthAdjust="spacingAndGlyphs" textLength="8" x="348.5698" y="556.86">1</text><!--link Adjustment to ChargePartyRole--><path d="M691.277,124.388 C787.99,139.273 906.584,164.944 937,204 C963.216,237.663 950.492,259.523 937,300 C914.513,367.462 903.327,393.763 841,428 C800.786,450.091 502.746,462.63 372.557,467.105 " fill="none" id="Adjustment-ChargePartyRole" style="stroke: #A80036; stroke-width: 1.0;"/><polygon fill="#A80036" points="367.241,467.286,376.3718,470.9777,372.2381,467.116,376.0998,462.9823,367.241,467.286" style="stroke: #A80036; stroke-width: 1.0;"/><text fill="#000000" font-family="sans-serif" font-size="13" lengthAdjust="spacingAndGlyphs" textLength="113" x="934" y="321.0669">ChargesPartyRole</text><text fill="#000000" font-family="sans-serif" font-size="13" lengthAdjust="spacingAndGlyphs" textLength="7" x="375.1343" y="461.857">*</text><!--link Adjustment to DateTimePeriod--><path d="M667.827,174.255 C677.08,183.283 685.4,193.204 692,204 C720.329,250.338 730.034,295.64 685,326 C634.834,359.82 461.112,366.147 369.532,367.073 " fill="none" id="Adjustment-DateTimePeriod" style="stroke: #A80036; stroke-width: 1.0;"/><polygon fill="#A80036" points="364.427,367.12,373.4632,371.0375,369.4268,367.0743,373.39,363.0379,364.427,367.12" style="stroke: #A80036; stroke-width: 1.0;"/><text fill="#000000" font-family="sans-serif" font-size="13" lengthAdjust="spacingAndGlyphs" textLength="94" x="718" y="268.0669">EffectivePeriod</text><text fill="#000000" font-family="sans-serif" font-size="13" lengthAdjust="spacingAndGlyphs" textLength="8" x="372.678" y="361.8213">1</text><!--link Adjustment to CurrencyExchange--><path d="M422.903,164.189 C400.677,175.946 378.535,189.297 359,204 C342.395,216.498 326.946,234.768 317.063,247.66 " fill="none" id="Adjustment-CurrencyExchange" style="stroke: #A80036; stroke-width: 1.0;"/><polygon fill="#A80036" points="313.931,251.809,322.5458,247.0356,316.9433,247.8183,316.1606,242.2158,313.931,251.809" style="stroke: #A80036; stroke-width: 1.0;"/><text fill="#000000" font-family="sans-serif" font-size="13" lengthAdjust="spacingAndGlyphs" textLength="119" x="360" y="217.0669">CurrencyExchange</text><text fill="#000000" font-family="sans-serif" font-size="13" lengthAdjust="spacingAndGlyphs" textLength="8" x="305.9019" y="241.0492">1</text><!--link Adjustment to SecuritiesOrder--><path d="M691.234,148.068 C780.387,181.723 872.503,234.737 822,300 C784.825,348.04 378.46,429.432 226.713,458.386 " fill="none" id="Adjustment-SecuritiesOrder" style="stroke: #A80036; stroke-width: 1.0;"/><polygon fill="#A80036" points="221.423,459.394,231.0126,461.639,226.3347,458.4582,229.5154,453.7803,221.423,459.394" style="stroke: #A80036; stroke-width: 1.0;"/><text fill="#000000" font-family="sans-serif" font-size="13" lengthAdjust="spacingAndGlyphs" textLength="99" x="813" y="321.0669">SecuritiesOrder</text><text fill="#000000" font-family="sans-serif" font-size="13" lengthAdjust="spacingAndGlyphs" textLength="8" x="229.8714" y="452.5478">1</text><!--link Adjustment to Tax--><path d="M603.715,174.163 C626.051,214.578 642.07,265.036 612,300 C557.776,363.048 324.2,343.412 242,356 C224.101,358.741 203.67,361.911 189.335,364.141 " fill="none" id="Adjustment-Tax" style="stroke: #A80036; stroke-width: 1.0;"/><polygon fill="#A80036" points="184.345,364.918,193.8529,367.4869,189.2856,364.1493,192.6231,359.582,184.345,364.918" style="stroke: #A80036; stroke-width: 1.0;"/><text fill="#000000" font-family="sans-serif" font-size="13" lengthAdjust="spacingAndGlyphs" textLength="22" x="630" y="268.0669">Tax</text><text fill="#000000" font-family="sans-serif" font-size="13" lengthAdjust="spacingAndGlyphs" textLength="24" x="192.6577" y="357.1755">0..1</text><!--link Charges to LineItem--><path d="M571.587,276.227 C588.722,319.216 648,477.78 648,614 C648,614 648,614 648,745 C648,801.7448 452.051,821.3563 371.729,827.0117 " fill="none" id="Charges-LineItem" style="stroke: #A80036; stroke-width: 1.0;"/><polygon fill="#A80036" points="366.608,827.3643,375.8621,830.7351,371.5961,827.02,375.3112,822.7541,366.608,827.3643" style="stroke: #A80036; stroke-width: 1.0;"/><text fill="#000000" font-family="sans-serif" font-size="13" lengthAdjust="spacingAndGlyphs" textLength="156" x="648" y="576.0669">LogisticsChargeLineItem</text><text fill="#000000" font-family="sans-serif" font-size="13" lengthAdjust="spacingAndGlyphs" textLength="24" x="375.3816" y="840.5132">0..1</text><!--link Charges to LineItem--><path d="M578.578,276.128 C585.829,283.053 595.398,292.111 604,300 C607.944,303.617 609.318,304.116 613,308 C717.402,418.126 864.834,441.019 814,584 C773.098,699.044 743.2,742.241 630,788 C541.723,823.6842 427.579,829.1584 371.756,829.4841 " fill="none" id="Charges-LineItem" style="stroke: #A80036; stroke-width: 1.0;"/><polygon fill="#A80036" points="366.539,829.5004,375.5515,833.4721,371.539,829.4847,375.5264,825.4721,366.539,829.5004" style="stroke: #A80036; stroke-width: 1.0;"/><text fill="#000000" font-family="sans-serif" font-size="13" lengthAdjust="spacingAndGlyphs" textLength="55" x="821" y="576.0669">LineItem</text><text fill="#000000" font-family="sans-serif" font-size="13" lengthAdjust="spacingAndGlyphs" textLength="8" x="375.6822" y="818.5447">1</text><!--link Charges to LineItem--><path d="M552.32,276.225 C543.12,283.186 530.967,292.25 520,300 C476.31,330.875 420,313.502 420,367 C420,367 420,367 420,745 C420,777.0402 389.074,801.4074 365.207,815.4422 " fill="none" id="Charges-LineItem" style="stroke: #A80036; stroke-width: 1.0;"/><polygon fill="#A80036" points="360.842,817.942,370.6399,816.9415,365.1811,815.4576,366.6649,809.9989,360.842,817.942" style="stroke: #A80036; stroke-width: 1.0;"/><text fill="#000000" font-family="sans-serif" font-size="13" lengthAdjust="spacingAndGlyphs" textLength="155" x="421" y="576.0669">NetPriceChargeLineItem</text><text fill="#000000" font-family="sans-serif" font-size="13" lengthAdjust="spacingAndGlyphs" textLength="24" x="339.0533" y="806.9703">0..1</text><!--link Payment to Tax--><path d="M109.129,119.219 C107.174,149.42 104.246,234.574 127,300 C133.735,319.367 147.293,338.635 157.589,351.503 " fill="none" id="Payment-Tax" style="stroke: #A80036; stroke-width: 1.0;"/><polygon fill="#A80036" points="160.941,355.612,158.3501,346.11,157.7799,351.7381,152.1518,351.1678,160.941,355.612" style="stroke: #A80036; stroke-width: 1.0;"/><text fill="#000000" font-family="sans-serif" font-size="13" lengthAdjust="spacingAndGlyphs" textLength="97" x="128" y="268.0669">TaxOnPayment</text><text fill="#000000" font-family="sans-serif" font-size="13" lengthAdjust="spacingAndGlyphs" textLength="7" x="148.2206" y="345.047">*</text><!--link Payment to CurrencyExchange--><path d="M115.855,119.028 C128.284,141.456 159.436,192.731 199,222 C216.102,234.652 237.587,243.888 256.809,250.354 " fill="none" id="Payment-CurrencyExchange" style="stroke: #A80036; stroke-width: 1.0;"/><polygon fill="#A80036" points="261.644,251.939,254.3373,245.3351,256.8926,250.3819,251.8459,252.9373,261.644,251.939" style="stroke: #A80036; stroke-width: 1.0;"/><text fill="#000000" font-family="sans-serif" font-size="13" lengthAdjust="spacingAndGlyphs" textLength="119" x="200" y="217.0669">CurrencyExchange</text><text fill="#000000" font-family="sans-serif" font-size="13" lengthAdjust="spacingAndGlyphs" textLength="7" x="236.8498" y="240.9662">*</text><!--link Payment to Payment--><path d="M123.828,94.889 C145.833,81.432 174,85.469 174,107 C174,127.101 149.45,131.955 128.283,121.561 " fill="none" id="Payment-Payment" style="stroke: #A80036; stroke-width: 1.0;"/><polygon fill="#A80036" points="123.828,119.111,129.786,126.9534,128.209,121.5208,133.6416,119.9438,123.828,119.111" style="stroke: #A80036; stroke-width: 1.0;"/><text fill="#000000" font-family="sans-serif" font-size="13" lengthAdjust="spacingAndGlyphs" textLength="105" x="180" y="111.0669">OriginalPayment</text><text fill="#000000" font-family="sans-serif" font-size="13" lengthAdjust="spacingAndGlyphs" textLength="8" x="118.1072" y="138.932">1</text><!--link CurrencyExchange to Tax--><path d="M280.495,276.07 C263.084,283.397 239.385,292.923 218,300 C204.899,304.335 197.854,298.34 188,308 C176.677,319.1 172.773,337.22 171.489,350.455 " fill="none" id="CurrencyExchange-Tax" style="stroke: #A80036; stroke-width: 1.0;"/><polygon fill="#A80036" points="171.085,355.793,175.7525,347.1204,171.4621,350.8072,167.7753,346.5169,171.085,355.793" style="stroke: #A80036; stroke-width: 1.0;"/><text fill="#000000" font-family="sans-serif" font-size="13" lengthAdjust="spacingAndGlyphs" textLength="22" x="189" y="321.0669">Tax</text><text fill="#000000" font-family="sans-serif" font-size="13" lengthAdjust="spacingAndGlyphs" textLength="8" x="160.3741" y="345.0279">1</text></g></svg>