<?xml version="1.0" encoding="UTF-8" standalone="no"?><svg xmlns="http://www.w3.org/2000/svg" xmlns:xlink="http://www.w3.org/1999/xlink" contentScriptType="application/ecmascript" contentStyleType="text/css" height="480px" preserveAspectRatio="none" style="width:576px;height:480px;" version="1.1" viewBox="0 0 576 480" width="576px" zoomAndPan="magnify"><defs><filter height="300%" id="f1b1w4gq6d2iwg" width="300%" x="-1" y="-1"><feGaussianBlur result="blurOut" stdDeviation="2.0"/><feColorMatrix in="blurOut" result="blurOut2" type="matrix" values="0 0 0 0 0 0 0 0 0 0 0 0 0 0 0 0 0 0 .4 0"/><feOffset dx="4.0" dy="4.0" in="blurOut2" result="blurOut3"/><feBlend in="SourceGraphic" in2="blurOut3" mode="normal"/></filter></defs><g><!--cluster ##2887--><!--cluster ##2893--><!--cluster ##2902--><!--class Role--><a target="_top" xlink:actuate="onRequest" xlink:href="../Role.html" xlink:show="new" xlink:title="Role of a party in an activity." xlink:type="simple"><rect fill="#FEFEEE" filter="url(#f1b1w4gq6d2iwg)" height="44.7734" id="Role" style="stroke: #A80036; stroke-width: 1.5;" width="175" x="38.75" y="40.5"/><rect fill="#FEFEEE" height="23.9688" style="stroke: #A80036; stroke-width: 1.5;" width="175" x="38.75" y="40.5"/><text fill="#000000" font-family="sans-serif" font-size="12" lengthAdjust="spacingAndGlyphs" textLength="27" x="112.75" y="56.6387">Role</text><line style="stroke: #A80036; stroke-width: 1.5;" x1="39.75" x2="212.75" y1="64.4688" y2="64.4688"/><ellipse cx="49.75" cy="76.3711" fill="#84BE84" rx="3" ry="3" style="stroke: #038048; stroke-width: 1.0;"/><text fill="#000000" font-family="sans-serif" font-size="11" lengthAdjust="spacingAndGlyphs" textLength="53" x="58.75" y="78.6792">PartyRole</text><text fill="#000000" font-family="sans-serif" font-size="11" font-style="italic" lengthAdjust="spacingAndGlyphs" textLength="92" x="115.75" y="78.6792">(PartyRoleCode)</text></a><!--class DocumentPartyRole--><a target="_top" xlink:actuate="onRequest" xlink:href="../DocumentPartyRole.html" xlink:show="new" xlink:title="Role played by a party in the context of a document." xlink:type="simple"><rect fill="#FEFECE" filter="url(#f1b1w4gq6d2iwg)" height="23.9688" id="DocumentPartyRole" style="stroke: #A80036; stroke-width: 1.5;" width="129" x="38.75" y="166"/><rect fill="#FEFECE" height="23.9688" style="stroke: #A80036; stroke-width: 1.5;" width="129" x="38.75" y="166"/><text fill="#000000" font-family="sans-serif" font-size="12" lengthAdjust="spacingAndGlyphs" textLength="123" x="41.75" y="182.1387">DocumentPartyRole</text></a><!--class RolePlayer--><a target="_top" xlink:actuate="onRequest" xlink:href="../RolePlayer.html" xlink:show="new" xlink:title="Type of entity that plays a specific role in a specific context." xlink:type="simple"><rect fill="#EEEEEE" filter="url(#f1b1w4gq6d2iwg)" height="23.9688" id="RolePlayer" style="stroke: #A80036; stroke-width: 1.5;" width="71" x="446.75" y="446"/><rect fill="#EEEEEE" height="23.9688" style="stroke: #A80036; stroke-width: 1.5;" width="71" x="446.75" y="446"/><text fill="#000000" font-family="sans-serif" font-size="12" lengthAdjust="spacingAndGlyphs" textLength="65" x="449.75" y="462.1387">RolePlayer</text></a><!--class ContactPersonRole--><a target="_top" xlink:actuate="onRequest" xlink:href="../ContactPersonRole.html" xlink:show="new" xlink:title="Person to be contacted in a given organisation. In the corporate action domain (including meeting notifications) , it is the contact person at the party organising the meeting, at the issuer or at an intermediary." xlink:type="simple"><rect fill="#EEEEEE" filter="url(#f1b1w4gq6d2iwg)" height="23.9688" id="ContactPersonRole" style="stroke: #A80036; stroke-width: 1.5;" width="126" x="439" y="360"/><rect fill="#EEEEEE" height="23.9688" style="stroke: #A80036; stroke-width: 1.5;" width="126" x="439" y="360"/><text fill="#000000" font-family="sans-serif" font-size="12" lengthAdjust="spacingAndGlyphs" textLength="120" x="442" y="376.1387">ContactPersonRole</text></a><!--class CounterpartyRisk--><a target="_top" xlink:actuate="onRequest" xlink:href="../CounterpartyRisk.html" xlink:show="new" xlink:title="Calculation of the exposure amount that one party has vis-a-vis one counterparty or a central system, based on its credit risk." xlink:type="simple"><rect fill="#EEEEEE" filter="url(#f1b1w4gq6d2iwg)" height="23.9688" id="CounterpartyRisk" style="stroke: #A80036; stroke-width: 1.5;" width="113" x="445.75" y="272"/><rect fill="#EEEEEE" height="23.9688" style="stroke: #A80036; stroke-width: 1.5;" width="113" x="445.75" y="272"/><text fill="#000000" font-family="sans-serif" font-size="12" lengthAdjust="spacingAndGlyphs" textLength="107" x="448.75" y="288.1387">CounterpartyRisk</text></a><!--class Entry--><a target="_top" xlink:actuate="onRequest" xlink:href="../Entry.html" xlink:show="new" xlink:title="Posting to an account that results in an increase or decrease to a balance." xlink:type="simple"><rect fill="#EEEEEE" filter="url(#f1b1w4gq6d2iwg)" height="23.9688" id="Entry" style="stroke: #A80036; stroke-width: 1.5;" width="38" x="527" y="166"/><rect fill="#EEEEEE" height="23.9688" style="stroke: #A80036; stroke-width: 1.5;" width="38" x="527" y="166"/><text fill="#000000" font-family="sans-serif" font-size="12" lengthAdjust="spacingAndGlyphs" textLength="32" x="530" y="182.1387">Entry</text></a><!--class Document--><a target="_top" xlink:actuate="onRequest" xlink:href="../Document.html" xlink:show="new" xlink:title="General information that unambiguously identifies a document, such as identification number and issue date time." xlink:type="simple"><rect fill="#EEEEEE" filter="url(#f1b1w4gq6d2iwg)" height="23.9688" id="Document" style="stroke: #A80036; stroke-width: 1.5;" width="70" x="68" y="272"/><rect fill="#EEEEEE" height="23.9688" style="stroke: #A80036; stroke-width: 1.5;" width="70" x="68" y="272"/><text fill="#000000" font-family="sans-serif" font-size="12" lengthAdjust="spacingAndGlyphs" textLength="64" x="71" y="288.1387">Document</text></a><!--link Role to DocumentPartyRole--><path d="M117.61,105.222 C113.197,126.901 108.124,151.825 105.2665,165.865 " fill="none" id="Role-DocumentPartyRole" style="stroke: #A80036; stroke-width: 1.0;"/><polygon fill="none" points="110.771,103.722,121.62,85.52,124.49,106.515,110.771,103.722" style="stroke: #A80036; stroke-width: 1.0;"/><!--link ContactPersonRole to RolePlayer--><!--link CounterpartyRisk to ContactPersonRole--><!--link Entry to CounterpartyRisk--><!--link Role to RolePlayer--><path d="M160.297,85.507 C187.509,105.51 221,138.043 221,177 C221,177 221,177 221,373 C221,418.7304 368.025,443.1339 441.378,452.4635 " fill="none" id="Role-RolePlayer" style="stroke: #A80036; stroke-width: 1.0;"/><polygon fill="#A80036" points="446.529,453.1092,438.0959,448.0216,441.5678,452.4878,437.1016,455.9596,446.529,453.1092" style="stroke: #A80036; stroke-width: 1.0;"/><text fill="#000000" font-family="sans-serif" font-size="13" lengthAdjust="spacingAndGlyphs" textLength="39" x="222" y="288.0669">Player</text><text fill="#000000" font-family="sans-serif" font-size="13" lengthAdjust="spacingAndGlyphs" textLength="7" x="431.8674" y="446.9718">*</text><!--link Role to ContactPersonRole--><path d="M203.816,85.64 C219.816,93.097 235.321,102.979 247,116 C285.488,158.909 249.545,194.553 285,240 C332.236,300.548 415.907,339.421 464.391,358.034 " fill="none" id="Role-ContactPersonRole" style="stroke: #A80036; stroke-width: 1.0;"/><polygon fill="#A80036" points="469.259,359.88,462.2624,352.9483,464.584,358.1069,459.4254,360.4284,469.259,359.88" style="stroke: #A80036; stroke-width: 1.0;"/><text fill="#000000" font-family="sans-serif" font-size="13" lengthAdjust="spacingAndGlyphs" textLength="121" x="286" y="235.0669">ContactPersonRole</text><text fill="#000000" font-family="sans-serif" font-size="13" lengthAdjust="spacingAndGlyphs" textLength="8" x="447.2855" y="348.887">1</text><!--link Role to CounterpartyRisk--><path d="M213.423,75.801 C248.008,83.396 286.852,95.8 318,116 C365.174,146.593 352.981,180.317 398,214 C405.336,219.489 409.006,217.523 417,222 C441.691,235.827 467.81,255.417 484.475,268.634 " fill="none" id="Role-CounterpartyRisk" style="stroke: #A80036; stroke-width: 1.0;"/><polygon fill="#A80036" points="488.501,271.85,483.9642,263.1083,484.5939,268.73,478.9722,269.3597,488.501,271.85" style="stroke: #A80036; stroke-width: 1.0;"/><text fill="#000000" font-family="sans-serif" font-size="13" lengthAdjust="spacingAndGlyphs" textLength="109" x="399" y="182.0669">CounterpartyRisk</text><text fill="#000000" font-family="sans-serif" font-size="13" lengthAdjust="spacingAndGlyphs" textLength="24" x="454.306" y="260.8467">0..1</text><!--link Role to Entry--><path d="M213.602,69.717 C292.106,77.69 408.628,96.714 500,142 C510.818,147.361 521.627,155.414 530.047,162.444 " fill="none" id="Role-Entry" style="stroke: #A80036; stroke-width: 1.0;"/><polygon fill="#A80036" points="533.979,165.797,529.7265,156.9135,530.1746,162.5526,524.5355,163.0006,533.979,165.797" style="stroke: #A80036; stroke-width: 1.0;"/><text fill="#000000" font-family="sans-serif" font-size="13" lengthAdjust="spacingAndGlyphs" textLength="33" x="482" y="129.0669">Entry</text><text fill="#000000" font-family="sans-serif" font-size="13" lengthAdjust="spacingAndGlyphs" textLength="8" x="519.3408" y="155.0332">1</text><!--link DocumentPartyRole to Document--><path d="M103,190.13 C103,208.583 103,245.586 103,266.892 " fill="none" id="DocumentPartyRole-Document" style="stroke: #A80036; stroke-width: 1.0;"/><polygon fill="#A80036" points="103,271.95,107,262.95,103,266.95,99,262.95,103,271.95" style="stroke: #A80036; stroke-width: 1.0;"/><text fill="#000000" font-family="sans-serif" font-size="13" lengthAdjust="spacingAndGlyphs" textLength="67" x="104" y="235.0669">Document</text><text fill="#000000" font-family="sans-serif" font-size="13" lengthAdjust="spacingAndGlyphs" textLength="7" x="93.4531" y="260.981">*</text></g></svg>