<?xml version="1.0" encoding="UTF-8" standalone="no"?><svg xmlns="http://www.w3.org/2000/svg" xmlns:xlink="http://www.w3.org/1999/xlink" contentScriptType="application/ecmascript" contentStyleType="text/css" height="1060px" preserveAspectRatio="none" style="width:2316px;height:1060px;" version="1.1" viewBox="0 0 2316 1060" width="2316px" zoomAndPan="magnify"><defs><filter height="300%" id="f19b71s45m1prn" width="300%" x="-1" y="-1"><feGaussianBlur result="blurOut" stdDeviation="2.0"/><feColorMatrix in="blurOut" result="blurOut2" type="matrix" values="0 0 0 0 0 0 0 0 0 0 0 0 0 0 0 0 0 0 .4 0"/><feOffset dx="4.0" dy="4.0" in="blurOut2" result="blurOut3"/><feBlend in="SourceGraphic" in2="blurOut3" mode="normal"/></filter></defs><g><!--cluster ##52811--><!--cluster ##52820--><!--cluster ##52825--><!--cluster ##52838--><!--class RolePlayer--><a target="_top" xlink:actuate="onRequest" xlink:href="../RolePlayer.html" xlink:show="new" xlink:title="Type of entity that plays a specific role in a specific context." xlink:type="simple"><rect fill="#FEFEEE" filter="url(#f19b71s45m1prn)" height="23.9688" id="RolePlayer" style="stroke: #A80036; stroke-width: 1.5;" width="71" x="1132.38" y="40"/><rect fill="#FEFEEE" height="23.9688" style="stroke: #A80036; stroke-width: 1.5;" width="71" x="1132.38" y="40"/><text fill="#000000" font-family="sans-serif" font-size="12" lengthAdjust="spacingAndGlyphs" textLength="65" x="1135.38" y="56.1387">RolePlayer</text></a><!--class Party--><a target="_top" xlink:actuate="onRequest" xlink:href="../Party.html" xlink:show="new" xlink:title="Entity involved in an activity." xlink:type="simple"><rect fill="#FEFEEE" filter="url(#f19b71s45m1prn)" height="57.5781" id="Party" style="stroke: #A80036; stroke-width: 1.5;" width="334" x="870.127" y="142"/><rect fill="#FEFEEE" height="23.9688" style="stroke: #A80036; stroke-width: 1.5;" width="334" x="870.127" y="142"/><text fill="#000000" font-family="sans-serif" font-size="12" lengthAdjust="spacingAndGlyphs" textLength="32" x="1021.127" y="158.1387">Party</text><line style="stroke: #A80036; stroke-width: 1.5;" x1="871.127" x2="1203.127" y1="165.9688" y2="165.9688"/><ellipse cx="881.127" cy="177.8711" fill="#84BE84" rx="3" ry="3" style="stroke: #038048; stroke-width: 1.0;"/><text fill="#000000" font-family="sans-serif" font-size="11" lengthAdjust="spacingAndGlyphs" textLength="133" x="890.127" y="180.1792">MoneyLaunderingCheck</text><text fill="#000000" font-family="sans-serif" font-size="11" font-style="italic" lengthAdjust="spacingAndGlyphs" textLength="171" x="1027.127" y="180.1792">(MoneyLaunderingCheckCode)</text><ellipse cx="881.127" cy="190.6758" fill="#84BE84" rx="3" ry="3" style="stroke: #038048; stroke-width: 1.0;"/><text fill="#000000" font-family="sans-serif" font-size="11" lengthAdjust="spacingAndGlyphs" textLength="73" x="890.127" y="192.9839">CreditQuality</text><text fill="#000000" font-family="sans-serif" font-size="11" font-style="italic" lengthAdjust="spacingAndGlyphs" textLength="111" x="967.127" y="192.9839">(CreditQualityCode)</text></a><!--class Organisation--><a target="_top" xlink:actuate="onRequest" xlink:href="../Organisation.html" xlink:show="new" xlink:title="Organised structure that is set up for a particular purpose. For example, a business, government body, department, charity, or financial institution." xlink:type="simple"><rect fill="#FEFECE" filter="url(#f19b71s45m1prn)" height="95.9922" id="Organisation" style="stroke: #A80036; stroke-width: 1.5;" width="232" x="818.127" y="278"/><rect fill="#FEFECE" height="23.9688" style="stroke: #A80036; stroke-width: 1.5;" width="232" x="818.127" y="278"/><text fill="#000000" font-family="sans-serif" font-size="12" lengthAdjust="spacingAndGlyphs" textLength="80" x="894.127" y="294.1387">Organisation</text><line style="stroke: #A80036; stroke-width: 1.5;" x1="819.127" x2="1049.127" y1="301.9688" y2="301.9688"/><ellipse cx="829.127" cy="313.8711" fill="#84BE84" rx="3" ry="3" style="stroke: #038048; stroke-width: 1.0;"/><text fill="#000000" font-family="sans-serif" font-size="11" lengthAdjust="spacingAndGlyphs" textLength="47" x="838.127" y="316.1792">Purpose</text><text fill="#000000" font-family="sans-serif" font-size="11" font-style="italic" lengthAdjust="spacingAndGlyphs" textLength="70" x="889.127" y="316.1792">(Max35Text)</text><ellipse cx="829.127" cy="326.6758" fill="#84BE84" rx="3" ry="3" style="stroke: #038048; stroke-width: 1.0;"/><text fill="#000000" font-family="sans-serif" font-size="11" lengthAdjust="spacingAndGlyphs" textLength="94" x="838.127" y="328.9839">RegistrationDate</text><text fill="#000000" font-family="sans-serif" font-size="11" font-style="italic" lengthAdjust="spacingAndGlyphs" textLength="81" x="936.127" y="328.9839">(ISODateTime)</text><ellipse cx="829.127" cy="339.4805" fill="#84BE84" rx="3" ry="3" style="stroke: #038048; stroke-width: 1.0;"/><text fill="#000000" font-family="sans-serif" font-size="11" lengthAdjust="spacingAndGlyphs" textLength="64" x="838.127" y="341.7886">Description</text><text fill="#000000" font-family="sans-serif" font-size="11" font-style="italic" lengthAdjust="spacingAndGlyphs" textLength="77" x="906.127" y="341.7886">(Max350Text)</text><ellipse cx="829.127" cy="352.2852" fill="#84BE84" rx="3" ry="3" style="stroke: #038048; stroke-width: 1.0;"/><text fill="#000000" font-family="sans-serif" font-size="11" lengthAdjust="spacingAndGlyphs" textLength="83" x="838.127" y="354.5933">LegalStructure</text><text fill="#000000" font-family="sans-serif" font-size="11" font-style="italic" lengthAdjust="spacingAndGlyphs" textLength="119" x="925.127" y="354.5933">(LegalStructureCode)</text><ellipse cx="829.127" cy="365.0898" fill="#84BE84" rx="3" ry="3" style="stroke: #038048; stroke-width: 1.0;"/><text fill="#000000" font-family="sans-serif" font-size="11" lengthAdjust="spacingAndGlyphs" textLength="107" x="838.127" y="367.3979">EstablishmentDate</text><text fill="#000000" font-family="sans-serif" font-size="11" font-style="italic" lengthAdjust="spacingAndGlyphs" textLength="53" x="949.127" y="367.3979">(ISODate)</text></a><!--class Role--><a target="_top" xlink:actuate="onRequest" xlink:href="../Role.html" xlink:show="new" xlink:title="Role of a party in an activity." xlink:type="simple"><rect fill="#EEEEEE" filter="url(#f19b71s45m1prn)" height="23.9688" id="Role" style="stroke: #A80036; stroke-width: 1.5;" width="33" x="2207.38" y="314"/><rect fill="#EEEEEE" height="23.9688" style="stroke: #A80036; stroke-width: 1.5;" width="33" x="2207.38" y="314"/><text fill="#000000" font-family="sans-serif" font-size="12" lengthAdjust="spacingAndGlyphs" textLength="27" x="2210.38" y="330.1387">Role</text></a><!--class DateTimePeriod--><a target="_top" xlink:actuate="onRequest" xlink:href="../DateTimePeriod.html" xlink:show="new" xlink:title="Time span defined by a start date and time, and an end date and time." xlink:type="simple"><rect fill="#EEEEEE" filter="url(#f19b71s45m1prn)" height="23.9688" id="DateTimePeriod" style="stroke: #A80036; stroke-width: 1.5;" width="105" x="2135.38" y="159"/><rect fill="#EEEEEE" height="23.9688" style="stroke: #A80036; stroke-width: 1.5;" width="105" x="2135.38" y="159"/><text fill="#000000" font-family="sans-serif" font-size="12" lengthAdjust="spacingAndGlyphs" textLength="99" x="2138.38" y="175.1387">DateTimePeriod</text></a><!--class ContactPoint--><a target="_top" xlink:actuate="onRequest" xlink:href="../ContactPoint.html" xlink:show="new" xlink:title="Number, physical or virtual address, used for communication." xlink:type="simple"><rect fill="#EEEEEE" filter="url(#f19b71s45m1prn)" height="23.9688" id="ContactPoint" style="stroke: #A80036; stroke-width: 1.5;" width="87" x="1510.38" y="850"/><rect fill="#EEEEEE" height="23.9688" style="stroke: #A80036; stroke-width: 1.5;" width="87" x="1510.38" y="850"/><text fill="#000000" font-family="sans-serif" font-size="12" lengthAdjust="spacingAndGlyphs" textLength="81" x="1513.38" y="866.1387">ContactPoint</text></a><!--class PartyIdentificationInformation--><a target="_top" xlink:actuate="onRequest" xlink:href="../PartyIdentificationInformation.html" xlink:show="new" xlink:title="Unique and unambiguous way to identify a party" xlink:type="simple"><rect fill="#EEEEEE" filter="url(#f19b71s45m1prn)" height="23.9688" id="PartyIdentificationInformation" style="stroke: #A80036; stroke-width: 1.5;" width="190" x="1514.63" y="762"/><rect fill="#EEEEEE" height="23.9688" style="stroke: #A80036; stroke-width: 1.5;" width="190" x="1514.63" y="762"/><text fill="#000000" font-family="sans-serif" font-size="12" lengthAdjust="spacingAndGlyphs" textLength="184" x="1517.63" y="778.1387">PartyIdentificationInformation</text></a><!--class Tax--><a target="_top" xlink:actuate="onRequest" xlink:href="../Tax.html" xlink:show="new" xlink:title="Amount of money due to the government or tax authority, according to various pre-defined parameters such as thresholds or income." xlink:type="simple"><rect fill="#EEEEEE" filter="url(#f19b71s45m1prn)" height="23.9688" id="Tax" style="stroke: #A80036; stroke-width: 1.5;" width="27" x="1575.38" y="660"/><rect fill="#EEEEEE" height="23.9688" style="stroke: #A80036; stroke-width: 1.5;" width="27" x="1575.38" y="660"/><text fill="#000000" font-family="sans-serif" font-size="12" lengthAdjust="spacingAndGlyphs" textLength="21" x="1578.38" y="676.1387">Tax</text></a><!--class Location--><a target="_top" xlink:actuate="onRequest" xlink:href="../Location.html" xlink:show="new" xlink:title="Specifies a place." xlink:type="simple"><rect fill="#EEEEEE" filter="url(#f19b71s45m1prn)" height="23.9688" id="Location" style="stroke: #A80036; stroke-width: 1.5;" width="59" x="1559.38" y="558"/><rect fill="#EEEEEE" height="23.9688" style="stroke: #A80036; stroke-width: 1.5;" width="59" x="1559.38" y="558"/><text fill="#000000" font-family="sans-serif" font-size="12" lengthAdjust="spacingAndGlyphs" textLength="53" x="1562.38" y="574.1387">Location</text></a><!--class PowerOfAttorney--><a target="_top" xlink:actuate="onRequest" xlink:href="../PowerOfAttorney.html" xlink:show="new" xlink:title="Document that transfers specific rights from a party to another party." xlink:type="simple"><rect fill="#EEEEEE" filter="url(#f19b71s45m1prn)" height="23.9688" id="PowerOfAttorney" style="stroke: #A80036; stroke-width: 1.5;" width="110" x="1598.63" y="456"/><rect fill="#EEEEEE" height="23.9688" style="stroke: #A80036; stroke-width: 1.5;" width="110" x="1598.63" y="456"/><text fill="#000000" font-family="sans-serif" font-size="12" lengthAdjust="spacingAndGlyphs" textLength="104" x="1601.63" y="472.1387">PowerOfAttorney</text></a><!--class Security--><a target="_top" xlink:actuate="onRequest" xlink:href="../Security.html" xlink:show="new" xlink:title="Financial instruments representing a sum of rights of the investor vis-a-vis the issuer." xlink:type="simple"><rect fill="#EEEEEE" filter="url(#f19b71s45m1prn)" height="23.9688" id="Security" style="stroke: #A80036; stroke-width: 1.5;" width="56" x="1510.13" y="314"/><rect fill="#EEEEEE" height="23.9688" style="stroke: #A80036; stroke-width: 1.5;" width="56" x="1510.13" y="314"/><text fill="#000000" font-family="sans-serif" font-size="12" lengthAdjust="spacingAndGlyphs" textLength="50" x="1513.13" y="330.1387">Security</text></a><!--class OrganisationIdentification--><a target="_top" xlink:actuate="onRequest" xlink:href="../OrganisationIdentification.html" xlink:show="new" xlink:title="Unique and unambiguous way to identify an organisation." xlink:type="simple"><rect fill="#EEEEEE" filter="url(#f19b71s45m1prn)" height="23.9688" id="OrganisationIdentification" style="stroke: #A80036; stroke-width: 1.5;" width="167" x="191.377" y="1026"/><rect fill="#EEEEEE" height="23.9688" style="stroke: #A80036; stroke-width: 1.5;" width="167" x="191.377" y="1026"/><text fill="#000000" font-family="sans-serif" font-size="12" lengthAdjust="spacingAndGlyphs" textLength="161" x="194.377" y="1042.1387">OrganisationIdentification</text></a><!--class SecuritiesModification--><a target="_top" xlink:actuate="onRequest" xlink:href="../SecuritiesModification.html" xlink:show="new" xlink:title="Modification of the reference data of a security or of the organisation that issued it." xlink:type="simple"><rect fill="#EEEEEE" filter="url(#f19b71s45m1prn)" height="23.9688" id="SecuritiesModification" style="stroke: #A80036; stroke-width: 1.5;" width="143" x="214.377" y="940"/><rect fill="#EEEEEE" height="23.9688" style="stroke: #A80036; stroke-width: 1.5;" width="143" x="214.377" y="940"/><text fill="#000000" font-family="sans-serif" font-size="12" lengthAdjust="spacingAndGlyphs" textLength="137" x="217.377" y="956.1387">SecuritiesModification</text></a><!--class Sector--><a target="_top" xlink:actuate="onRequest" xlink:href="../Sector.html" xlink:show="new" xlink:title="Type of business of the organisation, for example, pharmaceutical." xlink:type="simple"><rect fill="#EEEEEE" filter="url(#f19b71s45m1prn)" height="23.9688" id="Sector" style="stroke: #A80036; stroke-width: 1.5;" width="47" x="298.377" y="850"/><rect fill="#EEEEEE" height="23.9688" style="stroke: #A80036; stroke-width: 1.5;" width="47" x="298.377" y="850"/><text fill="#000000" font-family="sans-serif" font-size="12" lengthAdjust="spacingAndGlyphs" textLength="41" x="301.377" y="866.1387">Sector</text></a><!--class BuyOrSellIndicationOfInterest--><a target="_top" xlink:actuate="onRequest" xlink:href="../BuyOrSellIndicationOfInterest.html" xlink:show="new" xlink:title="Intention to buy or sell a financial Instrument." xlink:type="simple"><rect fill="#EEEEEE" filter="url(#f19b71s45m1prn)" height="23.9688" id="BuyOrSellIndicationOfInterest" style="stroke: #A80036; stroke-width: 1.5;" width="187" x="171.377" y="762"/><rect fill="#EEEEEE" height="23.9688" style="stroke: #A80036; stroke-width: 1.5;" width="187" x="171.377" y="762"/><text fill="#000000" font-family="sans-serif" font-size="12" lengthAdjust="spacingAndGlyphs" textLength="181" x="174.377" y="778.1387">BuyOrSellIndicationOfInterest</text></a><!--class OrganisationStrategy--><a target="_top" xlink:actuate="onRequest" xlink:href="../OrganisationStrategy.html" xlink:show="new" xlink:title="Strategy is organisation based." xlink:type="simple"><rect fill="#EEEEEE" filter="url(#f19b71s45m1prn)" height="23.9688" id="OrganisationStrategy" style="stroke: #A80036; stroke-width: 1.5;" width="139" x="175.377" y="660"/><rect fill="#EEEEEE" height="23.9688" style="stroke: #A80036; stroke-width: 1.5;" width="139" x="175.377" y="660"/><text fill="#000000" font-family="sans-serif" font-size="12" lengthAdjust="spacingAndGlyphs" textLength="133" x="178.377" y="676.1387">OrganisationStrategy</text></a><!--class OrganisationHierarchy--><a target="_top" xlink:actuate="onRequest" xlink:href="../OrganisationHierarchy.html" xlink:show="new" xlink:title="Description of the structure of a company." xlink:type="simple"><rect fill="#EEEEEE" filter="url(#f19b71s45m1prn)" height="23.9688" id="OrganisationHierarchy" style="stroke: #A80036; stroke-width: 1.5;" width="145" x="172.377" y="558"/><rect fill="#EEEEEE" height="23.9688" style="stroke: #A80036; stroke-width: 1.5;" width="145" x="172.377" y="558"/><text fill="#000000" font-family="sans-serif" font-size="12" lengthAdjust="spacingAndGlyphs" textLength="139" x="175.377" y="574.1387">OrganisationHierarchy</text></a><!--class RepresentativeOfficer--><a target="_top" xlink:actuate="onRequest" xlink:href="../RepresentativeOfficer.html" xlink:show="new" xlink:title="Officer who has some rights to represent a given organisation. In account management, it is the person to be contacted by the account servicer." xlink:type="simple"><rect fill="#EEEEEE" filter="url(#f19b71s45m1prn)" height="23.9688" id="RepresentativeOfficer" style="stroke: #A80036; stroke-width: 1.5;" width="141" x="216.377" y="456"/><rect fill="#EEEEEE" height="23.9688" style="stroke: #A80036; stroke-width: 1.5;" width="141" x="216.377" y="456"/><text fill="#000000" font-family="sans-serif" font-size="12" lengthAdjust="spacingAndGlyphs" textLength="135" x="219.377" y="472.1387">RepresentativeOfficer</text></a><!--link RolePlayer to Party--><path d="M1139.89,77.77 C1118.88,96.536 1090,122.335 1068.12,141.876 " fill="none" id="RolePlayer-Party" style="stroke: #A80036; stroke-width: 1.0;"/><polygon fill="none" points="1135.49,72.32,1155.07,64.22,1144.81,82.762,1135.49,72.32" style="stroke: #A80036; stroke-width: 1.0;"/><!--link Party to Organisation--><path d="M1006.38,216.924 C993.477,236.097 978.41,258.479 965.345,277.886 " fill="none" id="Party-Organisation" style="stroke: #A80036; stroke-width: 1.0;"/><polygon fill="none" points="1000.76,212.744,1017.74,200.063,1012.37,220.563,1000.76,212.744" style="stroke: #A80036; stroke-width: 1.0;"/><!--link DateTimePeriod to Role--><!--link PartyIdentificationInformation to ContactPoint--><!--link Tax to PartyIdentificationInformation--><!--link Location to Tax--><!--link PowerOfAttorney to Location--><!--link Security to PowerOfAttorney--><!--link SecuritiesModification to OrganisationIdentification--><!--link Sector to SecuritiesModification--><!--link BuyOrSellIndicationOfInterest to Sector--><!--link OrganisationStrategy to BuyOrSellIndicationOfInterest--><!--link OrganisationHierarchy to OrganisationStrategy--><!--link RepresentativeOfficer to OrganisationHierarchy--><!--link RolePlayer to Role--><path d="M1203.02,52.87 C1382.32,52.55 2184.69,55.61 2257.63,135 C2303.19,184.595 2256.26,273.421 2233.98,309.314 " fill="none" id="RolePlayer-Role" style="stroke: #A80036; stroke-width: 1.0;"/><polygon fill="#A80036" points="2231.14,313.82,2239.3246,308.3417,2233.8074,309.591,2232.5582,304.0738,2231.14,313.82" style="stroke: #A80036; stroke-width: 1.0;"/><text fill="#000000" font-family="sans-serif" font-size="13" lengthAdjust="spacingAndGlyphs" textLength="27" x="2277.63" y="175.0669">Role</text><text fill="#000000" font-family="sans-serif" font-size="13" lengthAdjust="spacingAndGlyphs" textLength="23" x="2205.3388" y="302.8063">1..*</text><!--link RolePlayer to DateTimePeriod--><path d="M1203.03,57.06 C1353.72,74.35 1942.44,141.875 2129.93,163.382 " fill="none" id="RolePlayer-DateTimePeriod" style="stroke: #A80036; stroke-width: 1.0;"/><polygon fill="#A80036" points="2135.09,163.974,2126.6061,158.9716,2130.1228,163.4026,2125.6918,166.9192,2135.09,163.974" style="stroke: #A80036; stroke-width: 1.0;"/><text fill="#000000" font-family="sans-serif" font-size="13" lengthAdjust="spacingAndGlyphs" textLength="86" x="1678.63" y="107.0669">ValidityPeriod</text><text fill="#000000" font-family="sans-serif" font-size="13" lengthAdjust="spacingAndGlyphs" textLength="24" x="2103.3054" y="158.4482">0..1</text><!--link Party to ContactPoint--><path d="M1203.46,175.098 C1400.24,180.349 1714.72,194.198 1826.63,230 C2010.08,288.692 2015.63,427.385 2015.63,620 C2015.63,620 2015.63,620 2015.63,775 C2015.63,816.703 1720.93,846.649 1602.27,857.017 " fill="none" id="Party-ContactPoint" style="stroke: #A80036; stroke-width: 1.0;"/><polygon fill="#A80036" points="1597.09,857.467,1606.3997,860.6808,1602.0716,857.0384,1605.714,852.7103,1597.09,857.467" style="stroke: #A80036; stroke-width: 1.0;"/><text fill="#000000" font-family="sans-serif" font-size="13" lengthAdjust="spacingAndGlyphs" textLength="82" x="2016.63" y="574.0669">ContactPoint</text><text fill="#000000" font-family="sans-serif" font-size="13" lengthAdjust="spacingAndGlyphs" textLength="23" x="1605.4675" y="851.5508">1..*</text><!--link Party to PartyIdentificationInformation--><path d="M1203.44,175.869 C1388.57,181.78 1674.81,196.183 1777.63,230 C1815.94,242.6 1829.96,246.096 1854.63,278 C1895.78,331.228 1917.22,360.625 1894.63,424 C1839.34,579.12 1682.26,715.122 1628.18,758.554 " fill="none" id="Party-PartyIdentificationInformation" style="stroke: #A80036; stroke-width: 1.0;"/><polygon fill="#A80036" points="1624.17,761.758,1633.701,759.2762,1628.0799,758.6415,1628.7147,753.0204,1624.17,761.758" style="stroke: #A80036; stroke-width: 1.0;"/><text fill="#000000" font-family="sans-serif" font-size="13" lengthAdjust="spacingAndGlyphs" textLength="81" x="1854.63" y="523.0669">Identification</text><text fill="#000000" font-family="sans-serif" font-size="13" lengthAdjust="spacingAndGlyphs" textLength="23" x="1600.8458" y="750.9813">1..*</text><!--link Party to Tax--><path d="M1124.25,200.074 C1160.81,216.613 1199.6,241.613 1220.63,278 C1247.32,324.175 1256.15,358.221 1220.63,398 C1131.24,498.085 1010.01,331.915 920.627,432 C906.417,447.912 907.782,462.967 920.627,480 C931.084,493.865 1463.62,637.435 1570.18,666.054 " fill="none" id="Party-Tax" style="stroke: #A80036; stroke-width: 1.0;"/><polygon fill="#A80036" points="1575.21,667.403,1567.5594,661.2008,1570.3819,666.1031,1565.4796,668.9257,1575.21,667.403" style="stroke: #A80036; stroke-width: 1.0;"/><text fill="#000000" font-family="sans-serif" font-size="13" lengthAdjust="spacingAndGlyphs" textLength="121" x="921.627" y="472.0669">TaxationConditions</text><text fill="#000000" font-family="sans-serif" font-size="13" lengthAdjust="spacingAndGlyphs" textLength="8" x="1559.3254" y="658.6706">1</text><!--link Party to Location--><path d="M1203.35,177.107 C1325.6,183.48 1494.95,197.804 1640.63,230 C1703.22,243.833 1739.61,225.674 1776.63,278 C1807.43,321.538 1805.2,352.969 1776.63,398 C1772.15,405.05 1765.5,400.068 1759.63,406 C1734.15,431.71 1749.29,452.615 1725.63,480 C1695.7,514.629 1649.07,540.964 1618.68,555.702 " fill="none" id="Party-Location" style="stroke: #A80036; stroke-width: 1.0;"/><polygon fill="#A80036" points="1613.95,557.968,1623.795,557.6931,1618.4606,555.8106,1620.3431,550.4761,1613.95,557.968" style="stroke: #A80036; stroke-width: 1.0;"/><text fill="#000000" font-family="sans-serif" font-size="13" lengthAdjust="spacingAndGlyphs" textLength="55" x="1760.63" y="419.0669">Domicile</text><text fill="#000000" font-family="sans-serif" font-size="13" lengthAdjust="spacingAndGlyphs" textLength="8" x="1611.8491" y="547.0052">1</text><!--link Party to Location--><path d="M1203.29,196.361 C1230.97,204.53 1258.49,215.436 1282.63,230 C1380.54,289.071 1374.79,339.313 1451.63,424 C1495.54,472.404 1549.16,528.242 1574.31,554.248 " fill="none" id="Party-Location" style="stroke: #A80036; stroke-width: 1.0;"/><polygon fill="#A80036" points="1577.81,557.864,1574.4162,548.6184,1574.3292,554.2745,1568.673,554.1876,1577.81,557.864" style="stroke: #A80036; stroke-width: 1.0;"/><text fill="#000000" font-family="sans-serif" font-size="13" lengthAdjust="spacingAndGlyphs" textLength="65" x="1452.63" y="419.0669">Residence</text><text fill="#000000" font-family="sans-serif" font-size="13" lengthAdjust="spacingAndGlyphs" textLength="7" x="1564.4578" y="546.8655">*</text><!--link Party to Location--><path d="M1203.17,178.96 C1373.25,187.355 1625.19,203.712 1718.63,230 C1764.55,242.919 1788.45,238.122 1814.63,278 C1850.28,332.308 1847.52,364.419 1821.63,424 C1786.24,505.441 1678.88,545.153 1623.1,560.73 " fill="none" id="Party-Location" style="stroke: #A80036; stroke-width: 1.0;"/><polygon fill="#A80036" points="1618.2,562.075,1627.9352,563.5672,1623.024,560.76,1625.8312,555.8488,1618.2,562.075" style="stroke: #A80036; stroke-width: 1.0;"/><text fill="#000000" font-family="sans-serif" font-size="13" lengthAdjust="spacingAndGlyphs" textLength="54" x="1830.63" y="419.0669">Location</text><text fill="#000000" font-family="sans-serif" font-size="13" lengthAdjust="spacingAndGlyphs" textLength="8" x="1626.3218" y="554.1583">1</text><!--link Party to PowerOfAttorney--><path d="M1203.46,178.998 C1360.89,187.187 1577.13,203.161 1606.63,230 C1670.9,288.474 1661.93,407.487 1656.17,450.786 " fill="none" id="Party-PowerOfAttorney" style="stroke: #A80036; stroke-width: 1.0;"/><polygon fill="#A80036" points="1655.45,455.916,1660.6549,447.5549,1656.1407,450.9639,1652.7316,446.4497,1655.45,455.916" style="stroke: #A80036; stroke-width: 1.0;"/><text fill="#000000" font-family="sans-serif" font-size="13" lengthAdjust="spacingAndGlyphs" textLength="107" x="1661.63" y="330.0669">PowerOfAttorney</text><text fill="#000000" font-family="sans-serif" font-size="13" lengthAdjust="spacingAndGlyphs" textLength="24" x="1626.6069" y="444.9353">0..1</text><!--link Party to Security--><path d="M1203.29,182.575 C1301.72,191.185 1415.31,205.948 1458.63,230 C1492.1,248.586 1517.3,287.44 1529.49,309.262 " fill="none" id="Party-Security" style="stroke: #A80036; stroke-width: 1.0;"/><polygon fill="#A80036" points="1532.03,313.905,1531.216,304.0898,1529.6286,309.5194,1524.1991,307.932,1532.03,313.905" style="stroke: #A80036; stroke-width: 1.0;"/><text fill="#000000" font-family="sans-serif" font-size="13" lengthAdjust="spacingAndGlyphs" textLength="112" x="1484.63" y="243.0669">CloseLinkSecurity</text><text fill="#000000" font-family="sans-serif" font-size="13" lengthAdjust="spacingAndGlyphs" textLength="8" x="1519.2144" y="302.9206">1</text><!--link Organisation to OrganisationIdentification--><path d="M874.682,374.247 C850.747,398.879 828.627,431.301 828.627,467 C828.627,467 828.627,467 828.627,953 C828.627,999.4935 519.678,1023.3911 363.209,1032.5128 " fill="none" id="Organisation-OrganisationIdentification" style="stroke: #A80036; stroke-width: 1.0;"/><polygon fill="#A80036" points="358.167,1032.8047,367.3829,1036.2786,363.1587,1032.5161,366.9211,1028.2919,358.167,1032.8047" style="stroke: #A80036; stroke-width: 1.0;"/><text fill="#000000" font-family="sans-serif" font-size="13" lengthAdjust="spacingAndGlyphs" textLength="162" x="829.627" y="727.0669">OrganisationIdentification</text><text fill="#000000" font-family="sans-serif" font-size="13" lengthAdjust="spacingAndGlyphs" textLength="7" x="366.4392" y="1027.5741">*</text><!--link Organisation to Organisation--><path d="M1049.35,310.883 C1069.56,312.898 1083.63,317.938 1083.63,326 C1083.63,333.37 1071.88,338.213 1054.42,340.531 " fill="none" id="Organisation-Organisation" style="stroke: #A80036; stroke-width: 1.0;"/><polygon fill="#A80036" points="1049.35,341.117,1058.7482,344.0622,1054.3172,340.5456,1057.8339,336.1146,1049.35,341.117" style="stroke: #A80036; stroke-width: 1.0;"/><text fill="#000000" font-family="sans-serif" font-size="13" lengthAdjust="spacingAndGlyphs" textLength="123" x="1089.63" y="330.0669">ParentOrganisation</text><text fill="#000000" font-family="sans-serif" font-size="13" lengthAdjust="spacingAndGlyphs" textLength="8" x="1058.1054" y="337.675">1</text><!--link Organisation to SecuritiesModification--><path d="M832.733,374.076 C804.107,390.116 774.1,409.711 749.627,432 C658.102,515.357 650.203,552.038 589.627,660 C574.921,686.211 562.627,691.945 562.627,722 C562.627,722 562.627,722 562.627,863 C562.627,905.215 444.288,929.84 362.307,941.835 " fill="none" id="Organisation-SecuritiesModification" style="stroke: #A80036; stroke-width: 1.0;"/><polygon fill="#A80036" points="356.962,942.606,366.4419,945.2765,361.9105,941.8903,365.2968,937.3589,356.962,942.606" style="stroke: #A80036; stroke-width: 1.0;"/><text fill="#000000" font-family="sans-serif" font-size="13" lengthAdjust="spacingAndGlyphs" textLength="139" x="590.627" y="676.0669">SecuritiesModification</text><text fill="#000000" font-family="sans-serif" font-size="13" lengthAdjust="spacingAndGlyphs" textLength="8" x="365.1744" y="936.7247">1</text><!--link Organisation to Location--><path d="M1049.49,360.825 C1109.02,379.495 1182.19,404.459 1245.63,432 C1286.85,449.899 1294.09,460.591 1334.63,480 C1384.21,503.742 1396.83,509.578 1448.63,528 C1484.12,540.623 1525.63,552.419 1554.18,560.087 " fill="none" id="Organisation-Location" style="stroke: #A80036; stroke-width: 1.0;"/><polygon fill="#A80036" points="1559.36,561.47,1551.6918,555.2895,1554.5283,560.1838,1549.6339,563.0203,1559.36,561.47" style="stroke: #A80036; stroke-width: 1.0;"/><text fill="#000000" font-family="sans-serif" font-size="13" lengthAdjust="spacingAndGlyphs" textLength="111" x="1335.63" y="472.0669">PlaceOfOperation</text><text fill="#000000" font-family="sans-serif" font-size="13" lengthAdjust="spacingAndGlyphs" textLength="7" x="1544.3434" y="554.0414">*</text><!--link Organisation to Location--><path d="M985.228,374.04 C1032.14,416.393 1096.17,473.044 1110.63,480 C1264.14,553.862 1472.69,566.579 1554.09,568.653 " fill="none" id="Organisation-Location" style="stroke: #A80036; stroke-width: 1.0;"/><polygon fill="#A80036" points="1559.26,568.775,1550.3538,564.5703,1554.2613,568.6607,1550.1709,572.5682,1559.26,568.775" style="stroke: #A80036; stroke-width: 1.0;"/><text fill="#000000" font-family="sans-serif" font-size="13" lengthAdjust="spacingAndGlyphs" textLength="124" x="1111.63" y="472.0669">PlaceOfRegistration</text><text fill="#000000" font-family="sans-serif" font-size="13" lengthAdjust="spacingAndGlyphs" textLength="24" x="1527.4674" y="581.855">0..1</text><!--link Organisation to Sector--><path d="M817.812,336.859 C764.279,346.857 703.269,366.722 660.627,406 C599.066,462.706 643.981,515.143 593.627,582 C580.258,599.751 570.155,597.146 553.627,612 C462.89,693.548 367.6,805.531 334.128,845.806 " fill="none" id="Organisation-Sector" style="stroke: #A80036; stroke-width: 1.0;"/><polygon fill="#A80036" points="330.718,849.917,339.542,845.5424,333.9096,846.0682,333.3839,840.4358,330.718,849.917" style="stroke: #A80036; stroke-width: 1.0;"/><text fill="#000000" font-family="sans-serif" font-size="13" lengthAdjust="spacingAndGlyphs" textLength="42" x="554.627" y="625.0669">Sector</text><text fill="#000000" font-family="sans-serif" font-size="13" lengthAdjust="spacingAndGlyphs" textLength="8" x="323.0383" y="838.9367">1</text><!--link Organisation to BuyOrSellIndicationOfInterest--><path d="M818.057,339.208 C748.906,349.931 660.906,369.752 589.627,406 C439.105,482.547 427.787,545.882 330.627,684 C312.16,710.253 289.727,740.093 276.344,757.691 " fill="none" id="Organisation-BuyOrSellIndicationOfInterest" style="stroke: #A80036; stroke-width: 1.0;"/><polygon fill="#A80036" points="273.144,761.892,281.78,757.157,276.1741,757.9147,275.4164,752.3089,273.144,761.892" style="stroke: #A80036; stroke-width: 1.0;"/><text fill="#000000" font-family="sans-serif" font-size="13" lengthAdjust="spacingAndGlyphs" textLength="172" x="414.627" y="574.0669">RelatedIndicationOfInterest</text><text fill="#000000" font-family="sans-serif" font-size="13" lengthAdjust="spacingAndGlyphs" textLength="24" x="246.517" y="750.9031">0..1</text><!--link Organisation to OrganisationStrategy--><path d="M817.911,327.248 C611.504,329.353 189.212,341.674 58.6273,406 C7.5615,431.155 -7.78,478.107 19.6273,528 C58.5635,598.881 149.164,639.621 202.766,658.345 " fill="none" id="Organisation-OrganisationStrategy" style="stroke: #A80036; stroke-width: 1.0;"/><polygon fill="#A80036" points="207.516,659.98,200.3079,653.2686,202.7882,658.3526,197.7041,660.833,207.516,659.98" style="stroke: #A80036; stroke-width: 1.0;"/><text fill="#000000" font-family="sans-serif" font-size="13" lengthAdjust="spacingAndGlyphs" textLength="55" x="20.6273" y="523.0669">Strategy</text><text fill="#000000" font-family="sans-serif" font-size="13" lengthAdjust="spacingAndGlyphs" textLength="24" x="165.2044" y="649.0213">0..1</text><!--link Organisation to OrganisationHierarchy--><path d="M818.092,332.271 C590.719,343.846 102.8632,375.096 53.6273,432 C4.1493,489.184 126.373,535.364 197.653,556.509 " fill="none" id="Organisation-OrganisationHierarchy" style="stroke: #A80036; stroke-width: 1.0;"/><polygon fill="#A80036" points="202.694,557.988,195.185,551.615,197.8964,556.5797,192.9317,559.2912,202.694,557.988" style="stroke: #A80036; stroke-width: 1.0;"/><text fill="#000000" font-family="sans-serif" font-size="13" lengthAdjust="spacingAndGlyphs" textLength="142" x="54.6273" y="472.0669">OrganisationHierarchy</text><text fill="#000000" font-family="sans-serif" font-size="13" lengthAdjust="spacingAndGlyphs" textLength="8" x="177.4748" y="547.0321">1</text><!--link Organisation to RepresentativeOfficer--><path d="M817.866,332.006 C631.527,341.263 282.043,364.049 244.627,406 C231.452,420.773 249.313,439.839 265.646,452.691 " fill="none" id="Organisation-RepresentativeOfficer" style="stroke: #A80036; stroke-width: 1.0;"/><polygon fill="#A80036" points="269.746,455.819,265.0179,447.1792,265.7712,452.7857,260.1647,453.539,269.746,455.819" style="stroke: #A80036; stroke-width: 1.0;"/><text fill="#000000" font-family="sans-serif" font-size="13" lengthAdjust="spacingAndGlyphs" textLength="137" x="245.627" y="419.0669">RepresentativeOfficer</text><text fill="#000000" font-family="sans-serif" font-size="13" lengthAdjust="spacingAndGlyphs" textLength="8" x="253.4151" y="445.0625">1</text><!--link DateTimePeriod to PartyIdentificationInformation--><path d="M2183.32,183.324 C2174.17,208.435 2153.63,270.851 2153.63,325 C2153.63,325 2153.63,325 2153.63,673 C2153.63,717.618 1866.9,750.159 1709.77,764.641 " fill="none" id="DateTimePeriod-PartyIdentificationInformation" style="stroke: #A80036; stroke-width: 1.0;"/><polygon fill="#A80036" points="1704.7,765.106,1714.019,768.2928,1709.6803,764.663,1713.3102,760.3243,1704.7,765.106" style="stroke: #A80036; stroke-width: 1.0;"/><text fill="#000000" font-family="sans-serif" font-size="13" lengthAdjust="spacingAndGlyphs" textLength="129" x="2154.63" y="523.0669">RelatedIdentification</text><text fill="#000000" font-family="sans-serif" font-size="13" lengthAdjust="spacingAndGlyphs" textLength="7" x="1712.5548" y="759.7933">*</text><!--link ContactPoint to ContactPoint--><path d="M1596.94,853.849 C1615.63,853.181 1631.63,855.898 1631.63,862 C1631.63,867.53 1618.49,870.279 1602.12,870.25 " fill="none" id="ContactPoint-ContactPoint" style="stroke: #A80036; stroke-width: 1.0;"/><polygon fill="#A80036" points="1596.94,870.151,1605.8701,874.3047,1601.9393,870.2367,1606.0073,866.3059,1596.94,870.151" style="stroke: #A80036; stroke-width: 1.0;"/><text fill="#000000" font-family="sans-serif" font-size="13" lengthAdjust="spacingAndGlyphs" textLength="80" x="1637.63" y="866.0669">MainContact</text><text fill="#000000" font-family="sans-serif" font-size="13" lengthAdjust="spacingAndGlyphs" textLength="8" x="1605.3226" y="885.0203">1</text><!--link Security to Sector--><path d="M1509.76,334.338 C1454.7,348.587 1327.91,380.163 1219.63,398 C1079.81,421.03 1042.24,407.769 902.627,432 C837.309,443.337 757.627,400.705 757.627,467 C757.627,467 757.627,467 757.627,775 C757.627,858.293 447.469,862.261 350.345,861.461 " fill="none" id="Security-Sector" style="stroke: #A80036; stroke-width: 1.0;"/><polygon fill="#A80036" points="345.069,861.411,354.0309,865.4957,350.0688,861.4581,354.1063,857.496,345.069,861.411" style="stroke: #A80036; stroke-width: 1.0;"/><text fill="#000000" font-family="sans-serif" font-size="13" lengthAdjust="spacingAndGlyphs" textLength="42" x="758.627" y="625.0669">Sector</text><text fill="#000000" font-family="sans-serif" font-size="13" lengthAdjust="spacingAndGlyphs" textLength="8" x="353.3966" y="854.7195">1</text><!--link Security to SecuritiesModification--><path d="M1538.5,338.286 C1539.46,357.265 1539.13,396.215 1523.63,424 C1504.72,457.89 1488.57,457.962 1456.63,480 C1103.86,723.365 1005.126,799.016 588.627,900 C512.36,918.492 423.687,932.572 362.052,941.205 " fill="none" id="Security-SecuritiesModification" style="stroke: #A80036; stroke-width: 1.0;"/><polygon fill="#A80036" points="356.919,941.92,366.3848,944.6399,361.8712,941.2301,365.281,936.7164,356.919,941.92" style="stroke: #A80036; stroke-width: 1.0;"/><text fill="#000000" font-family="sans-serif" font-size="13" lengthAdjust="spacingAndGlyphs" textLength="76" x="1190.63" y="676.0669">Modification</text><text fill="#000000" font-family="sans-serif" font-size="13" lengthAdjust="spacingAndGlyphs" textLength="24" x="365.4827" y="953.7293">0..1</text></g></svg>