<?xml version="1.0" encoding="UTF-8" standalone="no"?><svg xmlns="http://www.w3.org/2000/svg" xmlns:xlink="http://www.w3.org/1999/xlink" contentScriptType="application/ecmascript" contentStyleType="text/css" height="1048px" preserveAspectRatio="none" style="width:2315px;height:1048px;" version="1.1" viewBox="0 0 2315 1048" width="2315px" zoomAndPan="magnify"><defs><filter height="300%" id="f166kjzsp1rt1e" width="300%" x="-1" y="-1"><feGaussianBlur result="blurOut" stdDeviation="2.0"/><feColorMatrix in="blurOut" result="blurOut2" type="matrix" values="0 0 0 0 0 0 0 0 0 0 0 0 0 0 0 0 0 0 .4 0"/><feOffset dx="4.0" dy="4.0" in="blurOut2" result="blurOut3"/><feBlend in="SourceGraphic" in2="blurOut3" mode="normal"/></filter></defs><g><!--cluster ##788--><!--cluster ##797--><!--cluster ##802--><!--cluster ##815--><!--class RolePlayer--><a target="_top" xlink:actuate="onRequest" xlink:href="../RolePlayer.html" xlink:show="new" xlink:title="Type of entity that plays a specific role in a specific context." xlink:type="simple"><rect fill="#FEFEEE" filter="url(#f166kjzsp1rt1e)" height="23.9688" id="RolePlayer" style="stroke: #A80036; stroke-width: 1.5;" width="71" x="1132.38" y="40"/><rect fill="#FEFEEE" height="23.9688" style="stroke: #A80036; stroke-width: 1.5;" width="71" x="1132.38" y="40"/><text fill="#000000" font-family="sans-serif" font-size="12" lengthAdjust="spacingAndGlyphs" textLength="65" x="1135.38" y="56.1387">RolePlayer</text></a><!--class Party--><a target="_top" xlink:actuate="onRequest" xlink:href="../Party.html" xlink:show="new" xlink:title="Entity involved in an activity." xlink:type="simple"><rect fill="#FEFEEE" filter="url(#f166kjzsp1rt1e)" height="44.7734" id="Party" style="stroke: #A80036; stroke-width: 1.5;" width="334" x="870.127" y="142.5"/><rect fill="#FEFEEE" height="23.9688" style="stroke: #A80036; stroke-width: 1.5;" width="334" x="870.127" y="142.5"/><text fill="#000000" font-family="sans-serif" font-size="12" lengthAdjust="spacingAndGlyphs" textLength="32" x="1021.127" y="158.6387">Party</text><line style="stroke: #A80036; stroke-width: 1.5;" x1="871.127" x2="1203.127" y1="166.4688" y2="166.4688"/><ellipse cx="881.127" cy="178.3711" fill="#84BE84" rx="3" ry="3" style="stroke: #038048; stroke-width: 1.0;"/><text fill="#000000" font-family="sans-serif" font-size="11" lengthAdjust="spacingAndGlyphs" textLength="133" x="890.127" y="180.6792">MoneyLaunderingCheck</text><text fill="#000000" font-family="sans-serif" font-size="11" font-style="italic" lengthAdjust="spacingAndGlyphs" textLength="171" x="1027.127" y="180.6792">(MoneyLaunderingCheckCode)</text></a><!--class Organisation--><a target="_top" xlink:actuate="onRequest" xlink:href="../Organisation.html" xlink:show="new" xlink:title="Organised structure that is set up for a particular purpose. For example, a business, government body, department, charity, or financial institution." xlink:type="simple"><rect fill="#FEFECE" filter="url(#f166kjzsp1rt1e)" height="95.9922" id="Organisation" style="stroke: #A80036; stroke-width: 1.5;" width="232" x="818.127" y="266"/><rect fill="#FEFECE" height="23.9688" style="stroke: #A80036; stroke-width: 1.5;" width="232" x="818.127" y="266"/><text fill="#000000" font-family="sans-serif" font-size="12" lengthAdjust="spacingAndGlyphs" textLength="80" x="894.127" y="282.1387">Organisation</text><line style="stroke: #A80036; stroke-width: 1.5;" x1="819.127" x2="1049.127" y1="289.9688" y2="289.9688"/><ellipse cx="829.127" cy="301.8711" fill="#84BE84" rx="3" ry="3" style="stroke: #038048; stroke-width: 1.0;"/><text fill="#000000" font-family="sans-serif" font-size="11" lengthAdjust="spacingAndGlyphs" textLength="47" x="838.127" y="304.1792">Purpose</text><text fill="#000000" font-family="sans-serif" font-size="11" font-style="italic" lengthAdjust="spacingAndGlyphs" textLength="70" x="889.127" y="304.1792">(Max35Text)</text><ellipse cx="829.127" cy="314.6758" fill="#84BE84" rx="3" ry="3" style="stroke: #038048; stroke-width: 1.0;"/><text fill="#000000" font-family="sans-serif" font-size="11" lengthAdjust="spacingAndGlyphs" textLength="94" x="838.127" y="316.9839">RegistrationDate</text><text fill="#000000" font-family="sans-serif" font-size="11" font-style="italic" lengthAdjust="spacingAndGlyphs" textLength="81" x="936.127" y="316.9839">(ISODateTime)</text><ellipse cx="829.127" cy="327.4805" fill="#84BE84" rx="3" ry="3" style="stroke: #038048; stroke-width: 1.0;"/><text fill="#000000" font-family="sans-serif" font-size="11" lengthAdjust="spacingAndGlyphs" textLength="64" x="838.127" y="329.7886">Description</text><text fill="#000000" font-family="sans-serif" font-size="11" font-style="italic" lengthAdjust="spacingAndGlyphs" textLength="77" x="906.127" y="329.7886">(Max350Text)</text><ellipse cx="829.127" cy="340.2852" fill="#84BE84" rx="3" ry="3" style="stroke: #038048; stroke-width: 1.0;"/><text fill="#000000" font-family="sans-serif" font-size="11" lengthAdjust="spacingAndGlyphs" textLength="83" x="838.127" y="342.5933">LegalStructure</text><text fill="#000000" font-family="sans-serif" font-size="11" font-style="italic" lengthAdjust="spacingAndGlyphs" textLength="119" x="925.127" y="342.5933">(LegalStructureCode)</text><ellipse cx="829.127" cy="353.0898" fill="#84BE84" rx="3" ry="3" style="stroke: #038048; stroke-width: 1.0;"/><text fill="#000000" font-family="sans-serif" font-size="11" lengthAdjust="spacingAndGlyphs" textLength="107" x="838.127" y="355.3979">EstablishmentDate</text><text fill="#000000" font-family="sans-serif" font-size="11" font-style="italic" lengthAdjust="spacingAndGlyphs" textLength="53" x="949.127" y="355.3979">(ISODate)</text></a><!--class Role--><a target="_top" xlink:actuate="onRequest" xlink:href="../Role.html" xlink:show="new" xlink:title="Role of a party in an activity." xlink:type="simple"><rect fill="#EEEEEE" filter="url(#f166kjzsp1rt1e)" height="23.9688" id="Role" style="stroke: #A80036; stroke-width: 1.5;" width="33" x="2207.38" y="302"/><rect fill="#EEEEEE" height="23.9688" style="stroke: #A80036; stroke-width: 1.5;" width="33" x="2207.38" y="302"/><text fill="#000000" font-family="sans-serif" font-size="12" lengthAdjust="spacingAndGlyphs" textLength="27" x="2210.38" y="318.1387">Role</text></a><!--class DateTimePeriod--><a target="_top" xlink:actuate="onRequest" xlink:href="../DateTimePeriod.html" xlink:show="new" xlink:title="Time span defined by a start date and time, and an end date and time." xlink:type="simple"><rect fill="#EEEEEE" filter="url(#f166kjzsp1rt1e)" height="23.9688" id="DateTimePeriod" style="stroke: #A80036; stroke-width: 1.5;" width="105" x="2135.38" y="153"/><rect fill="#EEEEEE" height="23.9688" style="stroke: #A80036; stroke-width: 1.5;" width="105" x="2135.38" y="153"/><text fill="#000000" font-family="sans-serif" font-size="12" lengthAdjust="spacingAndGlyphs" textLength="99" x="2138.38" y="169.1387">DateTimePeriod</text></a><!--class ContactPoint--><a target="_top" xlink:actuate="onRequest" xlink:href="../ContactPoint.html" xlink:show="new" xlink:title="Number, physical or virtual address, used for communication." xlink:type="simple"><rect fill="#EEEEEE" filter="url(#f166kjzsp1rt1e)" height="23.9688" id="ContactPoint" style="stroke: #A80036; stroke-width: 1.5;" width="87" x="1510.38" y="838"/><rect fill="#EEEEEE" height="23.9688" style="stroke: #A80036; stroke-width: 1.5;" width="87" x="1510.38" y="838"/><text fill="#000000" font-family="sans-serif" font-size="12" lengthAdjust="spacingAndGlyphs" textLength="81" x="1513.38" y="854.1387">ContactPoint</text></a><!--class PartyIdentificationInformation--><a target="_top" xlink:actuate="onRequest" xlink:href="../PartyIdentificationInformation.html" xlink:show="new" xlink:title="Unique and unambiguous way to identify a party" xlink:type="simple"><rect fill="#EEEEEE" filter="url(#f166kjzsp1rt1e)" height="23.9688" id="PartyIdentificationInformation" style="stroke: #A80036; stroke-width: 1.5;" width="190" x="1514.63" y="750"/><rect fill="#EEEEEE" height="23.9688" style="stroke: #A80036; stroke-width: 1.5;" width="190" x="1514.63" y="750"/><text fill="#000000" font-family="sans-serif" font-size="12" lengthAdjust="spacingAndGlyphs" textLength="184" x="1517.63" y="766.1387">PartyIdentificationInformation</text></a><!--class Tax--><a target="_top" xlink:actuate="onRequest" xlink:href="../Tax.html" xlink:show="new" xlink:title="Amount of money due to the government or tax authority, according to various pre-defined parameters such as thresholds or income." xlink:type="simple"><rect fill="#EEEEEE" filter="url(#f166kjzsp1rt1e)" height="23.9688" id="Tax" style="stroke: #A80036; stroke-width: 1.5;" width="27" x="1575.38" y="648"/><rect fill="#EEEEEE" height="23.9688" style="stroke: #A80036; stroke-width: 1.5;" width="27" x="1575.38" y="648"/><text fill="#000000" font-family="sans-serif" font-size="12" lengthAdjust="spacingAndGlyphs" textLength="21" x="1578.38" y="664.1387">Tax</text></a><!--class Location--><a target="_top" xlink:actuate="onRequest" xlink:href="../Location.html" xlink:show="new" xlink:title="Specifies a place." xlink:type="simple"><rect fill="#EEEEEE" filter="url(#f166kjzsp1rt1e)" height="23.9688" id="Location" style="stroke: #A80036; stroke-width: 1.5;" width="59" x="1559.38" y="546"/><rect fill="#EEEEEE" height="23.9688" style="stroke: #A80036; stroke-width: 1.5;" width="59" x="1559.38" y="546"/><text fill="#000000" font-family="sans-serif" font-size="12" lengthAdjust="spacingAndGlyphs" textLength="53" x="1562.38" y="562.1387">Location</text></a><!--class PowerOfAttorney--><a target="_top" xlink:actuate="onRequest" xlink:href="../PowerOfAttorney.html" xlink:show="new" xlink:title="Document that transfers specific rights from a party to another party." xlink:type="simple"><rect fill="#EEEEEE" filter="url(#f166kjzsp1rt1e)" height="23.9688" id="PowerOfAttorney" style="stroke: #A80036; stroke-width: 1.5;" width="110" x="1598.63" y="444"/><rect fill="#EEEEEE" height="23.9688" style="stroke: #A80036; stroke-width: 1.5;" width="110" x="1598.63" y="444"/><text fill="#000000" font-family="sans-serif" font-size="12" lengthAdjust="spacingAndGlyphs" textLength="104" x="1601.63" y="460.1387">PowerOfAttorney</text></a><!--class Security--><a target="_top" xlink:actuate="onRequest" xlink:href="../Security.html" xlink:show="new" xlink:title="Financial instruments representing a sum of rights of the investor vis-a-vis the issuer." xlink:type="simple"><rect fill="#EEEEEE" filter="url(#f166kjzsp1rt1e)" height="23.9688" id="Security" style="stroke: #A80036; stroke-width: 1.5;" width="56" x="1510.13" y="302"/><rect fill="#EEEEEE" height="23.9688" style="stroke: #A80036; stroke-width: 1.5;" width="56" x="1510.13" y="302"/><text fill="#000000" font-family="sans-serif" font-size="12" lengthAdjust="spacingAndGlyphs" textLength="50" x="1513.13" y="318.1387">Security</text></a><!--class OrganisationIdentification--><a target="_top" xlink:actuate="onRequest" xlink:href="../OrganisationIdentification.html" xlink:show="new" xlink:title="Unique and unambiguous way to identify an organisation." xlink:type="simple"><rect fill="#EEEEEE" filter="url(#f166kjzsp1rt1e)" height="23.9688" id="OrganisationIdentification" style="stroke: #A80036; stroke-width: 1.5;" width="167" x="191.377" y="1014"/><rect fill="#EEEEEE" height="23.9688" style="stroke: #A80036; stroke-width: 1.5;" width="167" x="191.377" y="1014"/><text fill="#000000" font-family="sans-serif" font-size="12" lengthAdjust="spacingAndGlyphs" textLength="161" x="194.377" y="1030.1387">OrganisationIdentification</text></a><!--class SecuritiesModification--><a target="_top" xlink:actuate="onRequest" xlink:href="../SecuritiesModification.html" xlink:show="new" xlink:title="Modification of the reference data of a security or of the organisation that issued it." xlink:type="simple"><rect fill="#EEEEEE" filter="url(#f166kjzsp1rt1e)" height="23.9688" id="SecuritiesModification" style="stroke: #A80036; stroke-width: 1.5;" width="143" x="214.377" y="928"/><rect fill="#EEEEEE" height="23.9688" style="stroke: #A80036; stroke-width: 1.5;" width="143" x="214.377" y="928"/><text fill="#000000" font-family="sans-serif" font-size="12" lengthAdjust="spacingAndGlyphs" textLength="137" x="217.377" y="944.1387">SecuritiesModification</text></a><!--class Sector--><a target="_top" xlink:actuate="onRequest" xlink:href="../Sector.html" xlink:show="new" xlink:title="Type of business of the organisation, for example, pharmaceutical." xlink:type="simple"><rect fill="#EEEEEE" filter="url(#f166kjzsp1rt1e)" height="23.9688" id="Sector" style="stroke: #A80036; stroke-width: 1.5;" width="47" x="298.377" y="838"/><rect fill="#EEEEEE" height="23.9688" style="stroke: #A80036; stroke-width: 1.5;" width="47" x="298.377" y="838"/><text fill="#000000" font-family="sans-serif" font-size="12" lengthAdjust="spacingAndGlyphs" textLength="41" x="301.377" y="854.1387">Sector</text></a><!--class BuyOrSellIndicationOfInterest--><a target="_top" xlink:actuate="onRequest" xlink:href="../BuyOrSellIndicationOfInterest.html" xlink:show="new" xlink:title="Intention to buy or sell a financial Instrument." xlink:type="simple"><rect fill="#EEEEEE" filter="url(#f166kjzsp1rt1e)" height="23.9688" id="BuyOrSellIndicationOfInterest" style="stroke: #A80036; stroke-width: 1.5;" width="187" x="171.377" y="750"/><rect fill="#EEEEEE" height="23.9688" style="stroke: #A80036; stroke-width: 1.5;" width="187" x="171.377" y="750"/><text fill="#000000" font-family="sans-serif" font-size="12" lengthAdjust="spacingAndGlyphs" textLength="181" x="174.377" y="766.1387">BuyOrSellIndicationOfInterest</text></a><!--class OrganisationStrategy--><a target="_top" xlink:actuate="onRequest" xlink:href="../OrganisationStrategy.html" xlink:show="new" xlink:title="Strategy is organisation based." xlink:type="simple"><rect fill="#EEEEEE" filter="url(#f166kjzsp1rt1e)" height="23.9688" id="OrganisationStrategy" style="stroke: #A80036; stroke-width: 1.5;" width="139" x="175.377" y="648"/><rect fill="#EEEEEE" height="23.9688" style="stroke: #A80036; stroke-width: 1.5;" width="139" x="175.377" y="648"/><text fill="#000000" font-family="sans-serif" font-size="12" lengthAdjust="spacingAndGlyphs" textLength="133" x="178.377" y="664.1387">OrganisationStrategy</text></a><!--class OrganisationHierarchy--><a target="_top" xlink:actuate="onRequest" xlink:href="../OrganisationHierarchy.html" xlink:show="new" xlink:title="Description of the structure of a company." xlink:type="simple"><rect fill="#EEEEEE" filter="url(#f166kjzsp1rt1e)" height="23.9688" id="OrganisationHierarchy" style="stroke: #A80036; stroke-width: 1.5;" width="145" x="172.377" y="546"/><rect fill="#EEEEEE" height="23.9688" style="stroke: #A80036; stroke-width: 1.5;" width="145" x="172.377" y="546"/><text fill="#000000" font-family="sans-serif" font-size="12" lengthAdjust="spacingAndGlyphs" textLength="139" x="175.377" y="562.1387">OrganisationHierarchy</text></a><!--class RepresentativeOfficer--><a target="_top" xlink:actuate="onRequest" xlink:href="../RepresentativeOfficer.html" xlink:show="new" xlink:title="Officer who has some rights to represent a given organisation. In account management, it is the person to be contacted by the account servicer." xlink:type="simple"><rect fill="#EEEEEE" filter="url(#f166kjzsp1rt1e)" height="23.9688" id="RepresentativeOfficer" style="stroke: #A80036; stroke-width: 1.5;" width="141" x="216.377" y="444"/><rect fill="#EEEEEE" height="23.9688" style="stroke: #A80036; stroke-width: 1.5;" width="141" x="216.377" y="444"/><text fill="#000000" font-family="sans-serif" font-size="12" lengthAdjust="spacingAndGlyphs" textLength="135" x="219.377" y="460.1387">RepresentativeOfficer</text></a><!--link RolePlayer to Party--><path d="M1139.12,77.158 C1116.18,96.591 1084.25,123.65 1062.15,142.376 " fill="none" id="RolePlayer-Party" style="stroke: #A80036; stroke-width: 1.0;"/><polygon fill="none" points="1134.8,71.638,1154.59,64.05,1143.85,82.319,1134.8,71.638" style="stroke: #A80036; stroke-width: 1.0;"/><!--link Party to Organisation--><path d="M1009.79,204.303 C996.574,223.164 980.522,246.072 966.569,265.986 " fill="none" id="Party-Organisation" style="stroke: #A80036; stroke-width: 1.0;"/><polygon fill="none" points="1004.22,200.053,1021.43,187.69,1015.69,208.087,1004.22,200.053" style="stroke: #A80036; stroke-width: 1.0;"/><!--link DateTimePeriod to Role--><!--link PartyIdentificationInformation to ContactPoint--><!--link Tax to PartyIdentificationInformation--><!--link Location to Tax--><!--link PowerOfAttorney to Location--><!--link Security to PowerOfAttorney--><!--link SecuritiesModification to OrganisationIdentification--><!--link Sector to SecuritiesModification--><!--link BuyOrSellIndicationOfInterest to Sector--><!--link OrganisationStrategy to BuyOrSellIndicationOfInterest--><!--link OrganisationHierarchy to OrganisationStrategy--><!--link RepresentativeOfficer to OrganisationHierarchy--><!--link RolePlayer to Role--><path d="M1203.01,52.67 C1382.26,51.35 2184.42,49.91 2257.63,129 C2301.76,176.686 2256.17,262.182 2234.13,297.293 " fill="none" id="RolePlayer-Role" style="stroke: #A80036; stroke-width: 1.0;"/><polygon fill="#A80036" points="2231.31,301.71,2239.5227,296.2739,2233.9992,297.4948,2232.7783,291.9712,2231.31,301.71" style="stroke: #A80036; stroke-width: 1.0;"/><text fill="#000000" font-family="sans-serif" font-size="13" lengthAdjust="spacingAndGlyphs" textLength="27" x="2276.63" y="169.0669">Role</text><text fill="#000000" font-family="sans-serif" font-size="13" lengthAdjust="spacingAndGlyphs" textLength="23" x="2205.6306" y="290.9174">1..*</text><!--link RolePlayer to DateTimePeriod--><path d="M1203.03,56.85 C1353.72,73.251 1942.44,137.317 2129.93,157.721 " fill="none" id="RolePlayer-DateTimePeriod" style="stroke: #A80036; stroke-width: 1.0;"/><polygon fill="#A80036" points="2135.09,158.283,2126.5774,153.3297,2130.1195,157.7402,2125.709,161.2824,2135.09,158.283" style="stroke: #A80036; stroke-width: 1.0;"/><text fill="#000000" font-family="sans-serif" font-size="13" lengthAdjust="spacingAndGlyphs" textLength="86" x="1709.63" y="107.0669">ValidityPeriod</text><text fill="#000000" font-family="sans-serif" font-size="13" lengthAdjust="spacingAndGlyphs" textLength="24" x="2103.3054" y="152.7891">0..1</text><!--link Party to ContactPoint--><path d="M1203.44,167.696 C1400.19,171.316 1714.64,182.64 1826.63,218 C2010.3,275.998 2015.63,415.385 2015.63,608 C2015.63,608 2015.63,608 2015.63,763 C2015.63,804.703 1720.93,834.649 1602.27,845.017 " fill="none" id="Party-ContactPoint" style="stroke: #A80036; stroke-width: 1.0;"/><polygon fill="#A80036" points="1597.09,845.467,1606.3997,848.6808,1602.0716,845.0384,1605.714,840.7103,1597.09,845.467" style="stroke: #A80036; stroke-width: 1.0;"/><text fill="#000000" font-family="sans-serif" font-size="13" lengthAdjust="spacingAndGlyphs" textLength="82" x="2016.63" y="562.0669">ContactPoint</text><text fill="#000000" font-family="sans-serif" font-size="13" lengthAdjust="spacingAndGlyphs" textLength="23" x="1605.4675" y="839.5508">1..*</text><!--link Party to PartyIdentificationInformation--><path d="M1203.41,168.377 C1388.52,172.656 1674.74,184.617 1777.63,218 C1815.99,230.446 1829.96,234.096 1854.63,266 C1895.78,319.228 1917.22,348.625 1894.63,412 C1839.34,567.12 1682.26,703.122 1628.18,746.554 " fill="none" id="Party-PartyIdentificationInformation" style="stroke: #A80036; stroke-width: 1.0;"/><polygon fill="#A80036" points="1624.17,749.758,1633.701,747.2762,1628.0799,746.6415,1628.7147,741.0204,1624.17,749.758" style="stroke: #A80036; stroke-width: 1.0;"/><text fill="#000000" font-family="sans-serif" font-size="13" lengthAdjust="spacingAndGlyphs" textLength="81" x="1854.63" y="511.0669">Identification</text><text fill="#000000" font-family="sans-serif" font-size="13" lengthAdjust="spacingAndGlyphs" textLength="23" x="1600.8458" y="738.9813">1..*</text><!--link Party to Tax--><path d="M1115.03,187.62 C1154.05,202.777 1197.68,227.407 1220.63,266 C1247.89,311.841 1256.15,346.221 1220.63,386 C1131.24,486.085 1010.01,319.915 920.627,420 C906.417,435.912 907.782,450.967 920.627,468 C931.084,481.865 1463.62,625.435 1570.18,654.054 " fill="none" id="Party-Tax" style="stroke: #A80036; stroke-width: 1.0;"/><polygon fill="#A80036" points="1575.21,655.403,1567.5594,649.2008,1570.3819,654.1031,1565.4796,656.9257,1575.21,655.403" style="stroke: #A80036; stroke-width: 1.0;"/><text fill="#000000" font-family="sans-serif" font-size="13" lengthAdjust="spacingAndGlyphs" textLength="121" x="921.627" y="460.0669">TaxationConditions</text><text fill="#000000" font-family="sans-serif" font-size="13" lengthAdjust="spacingAndGlyphs" textLength="8" x="1559.3254" y="646.6706">1</text><!--link Party to Location--><path d="M1203.34,169.031 C1325.58,173.983 1494.92,186.55 1640.63,218 C1703.28,231.524 1739.61,213.674 1776.63,266 C1807.43,309.538 1805.2,340.969 1776.63,386 C1772.15,393.05 1765.5,388.068 1759.63,394 C1734.15,419.71 1749.29,440.615 1725.63,468 C1695.7,502.629 1649.07,528.964 1618.68,543.702 " fill="none" id="Party-Location" style="stroke: #A80036; stroke-width: 1.0;"/><polygon fill="#A80036" points="1613.95,545.968,1623.795,545.6931,1618.4606,543.8106,1620.3431,538.4761,1613.95,545.968" style="stroke: #A80036; stroke-width: 1.0;"/><text fill="#000000" font-family="sans-serif" font-size="13" lengthAdjust="spacingAndGlyphs" textLength="55" x="1760.63" y="407.0669">Domicile</text><text fill="#000000" font-family="sans-serif" font-size="13" lengthAdjust="spacingAndGlyphs" textLength="8" x="1611.8491" y="535.0052">1</text><!--link Party to Location--><path d="M1203.22,185.904 C1230.91,193.44 1258.45,203.792 1282.63,218 C1381.22,275.93 1374.79,327.313 1451.63,412 C1495.54,460.404 1549.16,516.242 1574.31,542.248 " fill="none" id="Party-Location" style="stroke: #A80036; stroke-width: 1.0;"/><polygon fill="#A80036" points="1577.81,545.864,1574.4162,536.6184,1574.3292,542.2745,1568.673,542.1876,1577.81,545.864" style="stroke: #A80036; stroke-width: 1.0;"/><text fill="#000000" font-family="sans-serif" font-size="13" lengthAdjust="spacingAndGlyphs" textLength="65" x="1452.63" y="407.0669">Residence</text><text fill="#000000" font-family="sans-serif" font-size="13" lengthAdjust="spacingAndGlyphs" textLength="7" x="1564.4578" y="534.8655">*</text><!--link Party to Location--><path d="M1203.15,171.339 C1373.21,178.107 1625.14,192.139 1718.63,218 C1764.6,230.718 1788.45,226.122 1814.63,266 C1850.28,320.308 1847.52,352.419 1821.63,412 C1786.24,493.441 1678.88,533.153 1623.1,548.73 " fill="none" id="Party-Location" style="stroke: #A80036; stroke-width: 1.0;"/><polygon fill="#A80036" points="1618.2,550.075,1627.9352,551.5672,1623.024,548.76,1625.8312,543.8488,1618.2,550.075" style="stroke: #A80036; stroke-width: 1.0;"/><text fill="#000000" font-family="sans-serif" font-size="13" lengthAdjust="spacingAndGlyphs" textLength="54" x="1830.63" y="407.0669">Location</text><text fill="#000000" font-family="sans-serif" font-size="13" lengthAdjust="spacingAndGlyphs" textLength="8" x="1626.3218" y="542.1583">1</text><!--link Party to PowerOfAttorney--><path d="M1203.41,171.188 C1360.81,177.677 1577.02,191.342 1606.63,218 C1671.2,276.138 1662.05,395.359 1656.2,438.749 " fill="none" id="Party-PowerOfAttorney" style="stroke: #A80036; stroke-width: 1.0;"/><polygon fill="#A80036" points="1655.48,443.89,1660.6991,435.5377,1656.1791,438.9391,1652.7777,434.4191,1655.48,443.89" style="stroke: #A80036; stroke-width: 1.0;"/><text fill="#000000" font-family="sans-serif" font-size="13" lengthAdjust="spacingAndGlyphs" textLength="107" x="1661.63" y="318.0669">PowerOfAttorney</text><text fill="#000000" font-family="sans-serif" font-size="13" lengthAdjust="spacingAndGlyphs" textLength="24" x="1626.6472" y="432.9004">0..1</text><!--link Party to Security--><path d="M1203.23,174.022 C1301.63,181.159 1415.22,194.295 1458.63,218 C1492.23,236.352 1517.38,275.299 1529.53,297.198 " fill="none" id="Party-Security" style="stroke: #A80036; stroke-width: 1.0;"/><polygon fill="#A80036" points="1532.06,301.857,1531.2707,292.0398,1529.6696,297.4654,1524.2441,295.8644,1532.06,301.857" style="stroke: #A80036; stroke-width: 1.0;"/><text fill="#000000" font-family="sans-serif" font-size="13" lengthAdjust="spacingAndGlyphs" textLength="112" x="1484.63" y="231.0669">CloseLinkSecurity</text><text fill="#000000" font-family="sans-serif" font-size="13" lengthAdjust="spacingAndGlyphs" textLength="8" x="1519.2547" y="290.8561">1</text><!--link Organisation to OrganisationIdentification--><path d="M874.682,362.247 C850.747,386.879 828.627,419.301 828.627,455 C828.627,455 828.627,455 828.627,941 C828.627,987.4935 519.678,1011.3911 363.209,1020.5128 " fill="none" id="Organisation-OrganisationIdentification" style="stroke: #A80036; stroke-width: 1.0;"/><polygon fill="#A80036" points="358.167,1020.8047,367.3829,1024.2786,363.1587,1020.5161,366.9211,1016.2919,358.167,1020.8047" style="stroke: #A80036; stroke-width: 1.0;"/><text fill="#000000" font-family="sans-serif" font-size="13" lengthAdjust="spacingAndGlyphs" textLength="162" x="829.627" y="715.0669">OrganisationIdentification</text><text fill="#000000" font-family="sans-serif" font-size="13" lengthAdjust="spacingAndGlyphs" textLength="7" x="366.4392" y="1015.5741">*</text><!--link Organisation to Organisation--><path d="M1049.35,298.883 C1069.56,300.898 1083.63,305.938 1083.63,314 C1083.63,321.37 1071.88,326.213 1054.42,328.531 " fill="none" id="Organisation-Organisation" style="stroke: #A80036; stroke-width: 1.0;"/><polygon fill="#A80036" points="1049.35,329.117,1058.7482,332.0622,1054.3172,328.5456,1057.8339,324.1146,1049.35,329.117" style="stroke: #A80036; stroke-width: 1.0;"/><text fill="#000000" font-family="sans-serif" font-size="13" lengthAdjust="spacingAndGlyphs" textLength="123" x="1089.63" y="318.0669">ParentOrganisation</text><text fill="#000000" font-family="sans-serif" font-size="13" lengthAdjust="spacingAndGlyphs" textLength="8" x="1058.1054" y="325.675">1</text><!--link Organisation to SecuritiesModification--><path d="M832.733,362.076 C804.107,378.116 774.1,397.711 749.627,420 C658.102,503.357 650.203,540.038 589.627,648 C574.921,674.211 562.627,679.945 562.627,710 C562.627,710 562.627,710 562.627,851 C562.627,893.215 444.288,917.84 362.307,929.835 " fill="none" id="Organisation-SecuritiesModification" style="stroke: #A80036; stroke-width: 1.0;"/><polygon fill="#A80036" points="356.962,930.606,366.4419,933.2765,361.9105,929.8903,365.2968,925.3589,356.962,930.606" style="stroke: #A80036; stroke-width: 1.0;"/><text fill="#000000" font-family="sans-serif" font-size="13" lengthAdjust="spacingAndGlyphs" textLength="139" x="590.627" y="664.0669">SecuritiesModification</text><text fill="#000000" font-family="sans-serif" font-size="13" lengthAdjust="spacingAndGlyphs" textLength="8" x="365.1744" y="924.7247">1</text><!--link Organisation to Location--><path d="M1049.49,348.825 C1109.02,367.495 1182.19,392.459 1245.63,420 C1286.85,437.899 1294.09,448.591 1334.63,468 C1384.21,491.742 1396.83,497.578 1448.63,516 C1484.12,528.623 1525.63,540.419 1554.18,548.087 " fill="none" id="Organisation-Location" style="stroke: #A80036; stroke-width: 1.0;"/><polygon fill="#A80036" points="1559.36,549.47,1551.6918,543.2895,1554.5283,548.1838,1549.6339,551.0203,1559.36,549.47" style="stroke: #A80036; stroke-width: 1.0;"/><text fill="#000000" font-family="sans-serif" font-size="13" lengthAdjust="spacingAndGlyphs" textLength="111" x="1335.63" y="460.0669">PlaceOfOperation</text><text fill="#000000" font-family="sans-serif" font-size="13" lengthAdjust="spacingAndGlyphs" textLength="7" x="1544.3434" y="542.0414">*</text><!--link Organisation to Location--><path d="M985.228,362.04 C1032.14,404.393 1096.17,461.044 1110.63,468 C1264.14,541.862 1472.69,554.579 1554.09,556.653 " fill="none" id="Organisation-Location" style="stroke: #A80036; stroke-width: 1.0;"/><polygon fill="#A80036" points="1559.26,556.775,1550.3538,552.5703,1554.2613,556.6607,1550.1709,560.5682,1559.26,556.775" style="stroke: #A80036; stroke-width: 1.0;"/><text fill="#000000" font-family="sans-serif" font-size="13" lengthAdjust="spacingAndGlyphs" textLength="124" x="1111.63" y="460.0669">PlaceOfRegistration</text><text fill="#000000" font-family="sans-serif" font-size="13" lengthAdjust="spacingAndGlyphs" textLength="24" x="1527.4674" y="569.855">0..1</text><!--link Organisation to Sector--><path d="M817.812,324.859 C764.279,334.857 703.269,354.722 660.627,394 C599.066,450.706 643.981,503.143 593.627,570 C580.258,587.751 570.155,585.146 553.627,600 C462.89,681.548 367.6,793.531 334.128,833.806 " fill="none" id="Organisation-Sector" style="stroke: #A80036; stroke-width: 1.0;"/><polygon fill="#A80036" points="330.718,837.917,339.542,833.5424,333.9096,834.0682,333.3839,828.4358,330.718,837.917" style="stroke: #A80036; stroke-width: 1.0;"/><text fill="#000000" font-family="sans-serif" font-size="13" lengthAdjust="spacingAndGlyphs" textLength="42" x="554.627" y="613.0669">Sector</text><text fill="#000000" font-family="sans-serif" font-size="13" lengthAdjust="spacingAndGlyphs" textLength="8" x="323.0383" y="826.9367">1</text><!--link Organisation to BuyOrSellIndicationOfInterest--><path d="M818.057,327.208 C748.906,337.931 660.906,357.752 589.627,394 C439.105,470.547 427.787,533.882 330.627,672 C312.16,698.253 289.727,728.093 276.344,745.691 " fill="none" id="Organisation-BuyOrSellIndicationOfInterest" style="stroke: #A80036; stroke-width: 1.0;"/><polygon fill="#A80036" points="273.144,749.892,281.78,745.157,276.1741,745.9147,275.4164,740.3089,273.144,749.892" style="stroke: #A80036; stroke-width: 1.0;"/><text fill="#000000" font-family="sans-serif" font-size="13" lengthAdjust="spacingAndGlyphs" textLength="172" x="414.627" y="562.0669">RelatedIndicationOfInterest</text><text fill="#000000" font-family="sans-serif" font-size="13" lengthAdjust="spacingAndGlyphs" textLength="24" x="246.517" y="738.9031">0..1</text><!--link Organisation to OrganisationStrategy--><path d="M817.911,315.248 C611.504,317.353 189.212,329.674 58.6273,394 C7.5615,419.155 -7.78,466.107 19.6273,516 C58.5635,586.881 149.164,627.621 202.766,646.345 " fill="none" id="Organisation-OrganisationStrategy" style="stroke: #A80036; stroke-width: 1.0;"/><polygon fill="#A80036" points="207.516,647.98,200.3079,641.2686,202.7882,646.3526,197.7041,648.833,207.516,647.98" style="stroke: #A80036; stroke-width: 1.0;"/><text fill="#000000" font-family="sans-serif" font-size="13" lengthAdjust="spacingAndGlyphs" textLength="55" x="20.6273" y="511.0669">Strategy</text><text fill="#000000" font-family="sans-serif" font-size="13" lengthAdjust="spacingAndGlyphs" textLength="24" x="165.2044" y="637.0213">0..1</text><!--link Organisation to OrganisationHierarchy--><path d="M818.092,320.271 C590.719,331.846 102.8632,363.096 53.6273,420 C4.1493,477.184 126.373,523.364 197.653,544.509 " fill="none" id="Organisation-OrganisationHierarchy" style="stroke: #A80036; stroke-width: 1.0;"/><polygon fill="#A80036" points="202.694,545.988,195.185,539.615,197.8964,544.5797,192.9317,547.2912,202.694,545.988" style="stroke: #A80036; stroke-width: 1.0;"/><text fill="#000000" font-family="sans-serif" font-size="13" lengthAdjust="spacingAndGlyphs" textLength="142" x="54.6273" y="460.0669">OrganisationHierarchy</text><text fill="#000000" font-family="sans-serif" font-size="13" lengthAdjust="spacingAndGlyphs" textLength="8" x="177.4748" y="535.0321">1</text><!--link Organisation to RepresentativeOfficer--><path d="M817.866,320.006 C631.527,329.263 282.043,352.049 244.627,394 C231.452,408.773 249.313,427.839 265.646,440.691 " fill="none" id="Organisation-RepresentativeOfficer" style="stroke: #A80036; stroke-width: 1.0;"/><polygon fill="#A80036" points="269.746,443.819,265.0179,435.1792,265.7712,440.7857,260.1647,441.539,269.746,443.819" style="stroke: #A80036; stroke-width: 1.0;"/><text fill="#000000" font-family="sans-serif" font-size="13" lengthAdjust="spacingAndGlyphs" textLength="137" x="245.627" y="407.0669">RepresentativeOfficer</text><text fill="#000000" font-family="sans-serif" font-size="13" lengthAdjust="spacingAndGlyphs" textLength="8" x="253.4151" y="433.0625">1</text><!--link DateTimePeriod to PartyIdentificationInformation--><path d="M2183.18,177.231 C2173.97,201.562 2153.63,261.135 2153.63,313 C2153.63,313 2153.63,313 2153.63,661 C2153.63,705.618 1866.9,738.159 1709.77,752.641 " fill="none" id="DateTimePeriod-PartyIdentificationInformation" style="stroke: #A80036; stroke-width: 1.0;"/><polygon fill="#A80036" points="1704.7,753.106,1714.019,756.2928,1709.6803,752.663,1713.3102,748.3243,1704.7,753.106" style="stroke: #A80036; stroke-width: 1.0;"/><text fill="#000000" font-family="sans-serif" font-size="13" lengthAdjust="spacingAndGlyphs" textLength="129" x="2154.63" y="511.0669">RelatedIdentification</text><text fill="#000000" font-family="sans-serif" font-size="13" lengthAdjust="spacingAndGlyphs" textLength="7" x="1712.5548" y="747.7933">*</text><!--link ContactPoint to ContactPoint--><path d="M1596.94,841.849 C1615.63,841.181 1631.63,843.898 1631.63,850 C1631.63,855.53 1618.49,858.279 1602.12,858.25 " fill="none" id="ContactPoint-ContactPoint" style="stroke: #A80036; stroke-width: 1.0;"/><polygon fill="#A80036" points="1596.94,858.151,1605.8701,862.3047,1601.9393,858.2367,1606.0073,854.3059,1596.94,858.151" style="stroke: #A80036; stroke-width: 1.0;"/><text fill="#000000" font-family="sans-serif" font-size="13" lengthAdjust="spacingAndGlyphs" textLength="80" x="1637.63" y="854.0669">MainContact</text><text fill="#000000" font-family="sans-serif" font-size="13" lengthAdjust="spacingAndGlyphs" textLength="8" x="1605.3226" y="873.0203">1</text><!--link Security to Sector--><path d="M1509.76,322.338 C1454.7,336.587 1327.91,368.163 1219.63,386 C1079.81,409.03 1042.24,395.769 902.627,420 C837.309,431.337 757.627,388.705 757.627,455 C757.627,455 757.627,455 757.627,763 C757.627,846.293 447.469,850.261 350.345,849.461 " fill="none" id="Security-Sector" style="stroke: #A80036; stroke-width: 1.0;"/><polygon fill="#A80036" points="345.069,849.411,354.0309,853.4957,350.0688,849.4581,354.1063,845.496,345.069,849.411" style="stroke: #A80036; stroke-width: 1.0;"/><text fill="#000000" font-family="sans-serif" font-size="13" lengthAdjust="spacingAndGlyphs" textLength="42" x="758.627" y="613.0669">Sector</text><text fill="#000000" font-family="sans-serif" font-size="13" lengthAdjust="spacingAndGlyphs" textLength="8" x="353.3966" y="842.7195">1</text><!--link Security to SecuritiesModification--><path d="M1538.5,326.286 C1539.46,345.265 1539.13,384.215 1523.63,412 C1504.72,445.89 1488.57,445.962 1456.63,468 C1103.86,711.365 1005.126,787.016 588.627,888 C512.36,906.492 423.687,920.572 362.052,929.205 " fill="none" id="Security-SecuritiesModification" style="stroke: #A80036; stroke-width: 1.0;"/><polygon fill="#A80036" points="356.919,929.92,366.3848,932.6399,361.8712,929.2301,365.281,924.7164,356.919,929.92" style="stroke: #A80036; stroke-width: 1.0;"/><text fill="#000000" font-family="sans-serif" font-size="13" lengthAdjust="spacingAndGlyphs" textLength="76" x="1190.63" y="664.0669">Modification</text><text fill="#000000" font-family="sans-serif" font-size="13" lengthAdjust="spacingAndGlyphs" textLength="24" x="365.4827" y="941.7293">0..1</text></g></svg>