<?xml version="1.0" encoding="UTF-8" standalone="no"?><svg xmlns="http://www.w3.org/2000/svg" xmlns:xlink="http://www.w3.org/1999/xlink" contentScriptType="application/ecmascript" contentStyleType="text/css" height="516px" preserveAspectRatio="none" style="width:1662px;height:516px;" version="1.1" viewBox="0 0 1662 516" width="1662px" zoomAndPan="magnify"><defs><filter height="300%" id="fk52k9bz10x74" width="300%" x="-1" y="-1"><feGaussianBlur result="blurOut" stdDeviation="2.0"/><feColorMatrix in="blurOut" result="blurOut2" type="matrix" values="0 0 0 0 0 0 0 0 0 0 0 0 0 0 0 0 0 0 .4 0"/><feOffset dx="4.0" dy="4.0" in="blurOut2" result="blurOut3"/><feBlend in="SourceGraphic" in2="blurOut3" mode="normal"/></filter></defs><g><!--cluster ##3946--><!--cluster ##3967--><!--cluster ##3976--><!--class Role--><a target="_top" xlink:actuate="onRequest" xlink:href="../Role.html" xlink:show="new" xlink:title="Role of a party in an activity." xlink:type="simple"><rect fill="#FEFEEE" filter="url(#fk52k9bz10x74)" height="44.7734" id="Role" style="stroke: #A80036; stroke-width: 1.5;" width="175" x="643.75" y="40.5"/><rect fill="#FEFEEE" height="23.9688" style="stroke: #A80036; stroke-width: 1.5;" width="175" x="643.75" y="40.5"/><text fill="#000000" font-family="sans-serif" font-size="12" lengthAdjust="spacingAndGlyphs" textLength="27" x="717.75" y="56.6387">Role</text><line style="stroke: #A80036; stroke-width: 1.5;" x1="644.75" x2="817.75" y1="64.4688" y2="64.4688"/><ellipse cx="654.75" cy="76.3711" fill="#84BE84" rx="3" ry="3" style="stroke: #038048; stroke-width: 1.0;"/><text fill="#000000" font-family="sans-serif" font-size="11" lengthAdjust="spacingAndGlyphs" textLength="53" x="663.75" y="78.6792">PartyRole</text><text fill="#000000" font-family="sans-serif" font-size="11" font-style="italic" lengthAdjust="spacingAndGlyphs" textLength="92" x="720.75" y="78.6792">(PartyRoleCode)</text></a><!--class TradePartyRole--><a target="_top" xlink:actuate="onRequest" xlink:href="../TradePartyRole.html" xlink:show="new" xlink:title="Trading party in a commercial, securities, treasury trade. This role may also represent parties which play different intermediary roles in a trade." xlink:type="simple"><rect fill="#FEFECE" filter="url(#fk52k9bz10x74)" height="57.5781" id="TradePartyRole" style="stroke: #A80036; stroke-width: 1.5;" width="279" x="501.75" y="164"/><rect fill="#FEFECE" height="23.9688" style="stroke: #A80036; stroke-width: 1.5;" width="279" x="501.75" y="164"/><text fill="#000000" font-family="sans-serif" font-size="12" lengthAdjust="spacingAndGlyphs" textLength="95" x="593.75" y="180.1387">TradePartyRole</text><line style="stroke: #A80036; stroke-width: 1.5;" x1="502.75" x2="779.75" y1="187.9688" y2="187.9688"/><ellipse cx="512.75" cy="199.8711" fill="#84BE84" rx="3" ry="3" style="stroke: #038048; stroke-width: 1.0;"/><text fill="#000000" font-family="sans-serif" font-size="11" lengthAdjust="spacingAndGlyphs" textLength="120" x="521.75" y="202.1792">TradingPartyCapacity</text><text fill="#000000" font-family="sans-serif" font-size="11" font-style="italic" lengthAdjust="spacingAndGlyphs" textLength="129" x="645.75" y="202.1792">(TradingCapacityCode)</text><ellipse cx="512.75" cy="212.6758" fill="#84BE84" rx="3" ry="3" style="stroke: #038048; stroke-width: 1.0;"/><text fill="#000000" font-family="sans-serif" font-size="11" lengthAdjust="spacingAndGlyphs" textLength="80" x="521.75" y="214.9839">BuyerOrSeller</text><text fill="#000000" font-family="sans-serif" font-size="11" font-style="italic" lengthAdjust="spacingAndGlyphs" textLength="104" x="605.75" y="214.9839">(OptionPartyCode)</text></a><!--class SecuritiesTradePartyRole--><a target="_top" xlink:actuate="onRequest" xlink:href="../SecuritiesTradePartyRole.html" xlink:show="new" xlink:title="Role played by a party in the context of a securities trade." xlink:type="simple"><rect fill="#FEFEEE" filter="url(#fk52k9bz10x74)" height="23.9688" id="SecuritiesTradePartyRole" style="stroke: #A80036; stroke-width: 1.5;" width="163" x="38.75" y="302"/><rect fill="#FEFEEE" height="23.9688" style="stroke: #A80036; stroke-width: 1.5;" width="163" x="38.75" y="302"/><text fill="#000000" font-family="sans-serif" font-size="12" lengthAdjust="spacingAndGlyphs" textLength="157" x="41.75" y="318.1387">SecuritiesTradePartyRole</text></a><!--class Broker--><a target="_top" xlink:actuate="onRequest" xlink:href="../Broker.html" xlink:show="new" xlink:title="Party that identifies a broker when required (for example, authorised broker, prime broker, etc)." xlink:type="simple"><rect fill="#FEFEEE" filter="url(#fk52k9bz10x74)" height="23.9688" id="Broker" style="stroke: #A80036; stroke-width: 1.5;" width="47" x="236.75" y="302"/><rect fill="#FEFEEE" height="23.9688" style="stroke: #A80036; stroke-width: 1.5;" width="47" x="236.75" y="302"/><text fill="#000000" font-family="sans-serif" font-size="12" lengthAdjust="spacingAndGlyphs" textLength="41" x="239.75" y="318.1387">Broker</text></a><!--class TreasuryTradePartyRole--><a target="_top" xlink:actuate="onRequest" xlink:href="../TreasuryTradePartyRole.html" xlink:show="new" xlink:title="Role played by a party in the context of a treasury trade." xlink:type="simple"><rect fill="#FEFEEE" filter="url(#fk52k9bz10x74)" height="23.9688" id="TreasuryTradePartyRole" style="stroke: #A80036; stroke-width: 1.5;" width="155" x="318.75" y="302"/><rect fill="#FEFEEE" height="23.9688" style="stroke: #A80036; stroke-width: 1.5;" width="155" x="318.75" y="302"/><text fill="#000000" font-family="sans-serif" font-size="12" lengthAdjust="spacingAndGlyphs" textLength="149" x="321.75" y="318.1387">TreasuryTradePartyRole</text></a><!--class CommercialTradePartyRole--><a target="_top" xlink:actuate="onRequest" xlink:href="../CommercialTradePartyRole.html" xlink:show="new" xlink:title="Role played by a party in the context of a trade." xlink:type="simple"><rect fill="#FEFEEE" filter="url(#fk52k9bz10x74)" height="23.9688" id="CommercialTradePartyRole" style="stroke: #A80036; stroke-width: 1.5;" width="173" x="508.75" y="302"/><rect fill="#FEFEEE" height="23.9688" style="stroke: #A80036; stroke-width: 1.5;" width="173" x="508.75" y="302"/><text fill="#000000" font-family="sans-serif" font-size="12" lengthAdjust="spacingAndGlyphs" textLength="167" x="511.75" y="318.1387">CommercialTradePartyRole</text></a><!--class StockExchange--><a target="_top" xlink:actuate="onRequest" xlink:href="../StockExchange.html" xlink:show="new" xlink:title="Party that identifies the stock exchange." xlink:type="simple"><rect fill="#FEFEEE" filter="url(#fk52k9bz10x74)" height="23.9688" id="StockExchange" style="stroke: #A80036; stroke-width: 1.5;" width="102" x="717.5" y="302"/><rect fill="#FEFEEE" height="23.9688" style="stroke: #A80036; stroke-width: 1.5;" width="102" x="717.5" y="302"/><text fill="#000000" font-family="sans-serif" font-size="12" lengthAdjust="spacingAndGlyphs" textLength="96" x="720.5" y="318.1387">StockExchange</text></a><!--class RolePlayer--><a target="_top" xlink:actuate="onRequest" xlink:href="../RolePlayer.html" xlink:show="new" xlink:title="Type of entity that plays a specific role in a specific context." xlink:type="simple"><rect fill="#EEEEEE" filter="url(#fk52k9bz10x74)" height="23.9688" id="RolePlayer" style="stroke: #A80036; stroke-width: 1.5;" width="71" x="1237.75" y="482"/><rect fill="#EEEEEE" height="23.9688" style="stroke: #A80036; stroke-width: 1.5;" width="71" x="1237.75" y="482"/><text fill="#000000" font-family="sans-serif" font-size="12" lengthAdjust="spacingAndGlyphs" textLength="65" x="1240.75" y="498.1387">RolePlayer</text></a><!--class ContactPersonRole--><a target="_top" xlink:actuate="onRequest" xlink:href="../ContactPersonRole.html" xlink:show="new" xlink:title="Person to be contacted in a given organisation. In the corporate action domain (including meeting notifications) , it is the contact person at the party organising the meeting, at the issuer or at an intermediary." xlink:type="simple"><rect fill="#EEEEEE" filter="url(#fk52k9bz10x74)" height="23.9688" id="ContactPersonRole" style="stroke: #A80036; stroke-width: 1.5;" width="126" x="1190" y="392"/><rect fill="#EEEEEE" height="23.9688" style="stroke: #A80036; stroke-width: 1.5;" width="126" x="1190" y="392"/><text fill="#000000" font-family="sans-serif" font-size="12" lengthAdjust="spacingAndGlyphs" textLength="120" x="1193" y="408.1387">ContactPersonRole</text></a><!--class CounterpartyRisk--><a target="_top" xlink:actuate="onRequest" xlink:href="../CounterpartyRisk.html" xlink:show="new" xlink:title="Calculation of the exposure amount that one party has vis-a-vis one counterparty or a central system, based on its credit risk." xlink:type="simple"><rect fill="#EEEEEE" filter="url(#fk52k9bz10x74)" height="23.9688" id="CounterpartyRisk" style="stroke: #A80036; stroke-width: 1.5;" width="113" x="1202.75" y="302"/><rect fill="#EEEEEE" height="23.9688" style="stroke: #A80036; stroke-width: 1.5;" width="113" x="1202.75" y="302"/><text fill="#000000" font-family="sans-serif" font-size="12" lengthAdjust="spacingAndGlyphs" textLength="107" x="1205.75" y="318.1387">CounterpartyRisk</text></a><!--class Entry--><a target="_top" xlink:actuate="onRequest" xlink:href="../Entry.html" xlink:show="new" xlink:title="Posting to an account that results in an increase or decrease to a balance." xlink:type="simple"><rect fill="#EEEEEE" filter="url(#fk52k9bz10x74)" height="23.9688" id="Entry" style="stroke: #A80036; stroke-width: 1.5;" width="38" x="1190" y="181"/><rect fill="#EEEEEE" height="23.9688" style="stroke: #A80036; stroke-width: 1.5;" width="38" x="1190" y="181"/><text fill="#000000" font-family="sans-serif" font-size="12" lengthAdjust="spacingAndGlyphs" textLength="32" x="1193" y="197.1387">Entry</text></a><!--class Account--><a target="_top" xlink:actuate="onRequest" xlink:href="../Account.html" xlink:show="new" xlink:title="Record of transactions in specific types of assets, maintained by a servicing party on behalf of one or more owning parties. Business relationship between an account servicer and one or more account owners." xlink:type="simple"><rect fill="#EEEEEE" filter="url(#fk52k9bz10x74)" height="23.9688" id="Account" style="stroke: #A80036; stroke-width: 1.5;" width="57" x="875.75" y="392"/><rect fill="#EEEEEE" height="23.9688" style="stroke: #A80036; stroke-width: 1.5;" width="57" x="875.75" y="392"/><text fill="#000000" font-family="sans-serif" font-size="12" lengthAdjust="spacingAndGlyphs" textLength="51" x="878.75" y="408.1387">Account</text></a><!--class Trade--><a target="_top" xlink:actuate="onRequest" xlink:href="../Trade.html" xlink:show="new" xlink:title="Result of an order between at least two parties. A trade relates to the delivery of goods and services, cash or securities." xlink:type="simple"><rect fill="#EEEEEE" filter="url(#fk52k9bz10x74)" height="23.9688" id="Trade" style="stroke: #A80036; stroke-width: 1.5;" width="42" x="875.5" y="302"/><rect fill="#EEEEEE" height="23.9688" style="stroke: #A80036; stroke-width: 1.5;" width="42" x="875.5" y="302"/><text fill="#000000" font-family="sans-serif" font-size="12" lengthAdjust="spacingAndGlyphs" textLength="36" x="878.5" y="318.1387">Trade</text></a><!--link Role to TradePartyRole--><path d="M704.147,102.191 C690.214,122.006 673.494,145.786 660.76,163.897 " fill="none" id="Role-TradePartyRole" style="stroke: #A80036; stroke-width: 1.0;"/><polygon fill="none" points="698.503,98.048,715.733,85.713,709.955,106.1,698.503,98.048" style="stroke: #A80036; stroke-width: 1.0;"/><!--link TradePartyRole to SecuritiesTradePartyRole--><path d="M481.632,218.448 C426.969,227.754 365.577,239.228 310,252 C269.006,261.421 259.07,265.206 219,278 C195.556,285.486 169.307,294.809 149.731,301.951 " fill="none" id="TradePartyRole-SecuritiesTradePartyRole" style="stroke: #A80036; stroke-width: 1.0;"/><polygon fill="none" points="480.561,211.53,501.444,215.119,482.88,225.337,480.561,211.53" style="stroke: #A80036; stroke-width: 1.0;"/><!--link TradePartyRole to Broker--><path d="M481.691,217.456 C422.753,230.17 356.762,249.365 301,278 C289.178,284.071 277.856,294.176 270.117,301.971 " fill="none" id="TradePartyRole-Broker" style="stroke: #A80036; stroke-width: 1.0;"/><polygon fill="none" points="480.38,210.579,501.383,213.389,483.212,224.29,480.38,210.579" style="stroke: #A80036; stroke-width: 1.0;"/><!--link TradePartyRole to TreasuryTradePartyRole--><path d="M564.974,230.927 C514.588,255.4 451.884,285.856 418.84,301.906 " fill="none" id="TradePartyRole-TreasuryTradePartyRole" style="stroke: #A80036; stroke-width: 1.0;"/><polygon fill="none" points="562.2,224.492,583.249,222.051,568.317,237.085,562.2,224.492" style="stroke: #A80036; stroke-width: 1.0;"/><!--link TradePartyRole to CommercialTradePartyRole--><path d="M622.781,241.132 C614.208,263.311 604.707,287.888 599.333,301.79 " fill="none" id="TradePartyRole-CommercialTradePartyRole" style="stroke: #A80036; stroke-width: 1.0;"/><polygon fill="none" points="616.358,238.332,630.099,222.201,629.417,243.38,616.358,238.332" style="stroke: #A80036; stroke-width: 1.0;"/><!--link TradePartyRole to StockExchange--><path d="M685.944,236.113 C710.91,259.506 740.071,286.83 756.036,301.79 " fill="none" id="TradePartyRole-StockExchange" style="stroke: #A80036; stroke-width: 1.0;"/><polygon fill="none" points="680.905,240.984,671.097,222.201,690.478,230.768,680.905,240.984" style="stroke: #A80036; stroke-width: 1.0;"/><!--link ContactPersonRole to RolePlayer--><!--link CounterpartyRisk to ContactPersonRole--><!--link Entry to CounterpartyRisk--><!--link Trade to Account--><!--link Role to RolePlayer--><path d="M818.495,67.652 C1040.83,78.094 1610,112.58 1610,192 C1610,192 1610,192 1610,405 C1610,465.6217 1403.27,485.2654 1313.64,490.9332 " fill="none" id="Role-RolePlayer" style="stroke: #A80036; stroke-width: 1.0;"/><polygon fill="#A80036" points="1308.43,491.2555,1317.6636,494.6819,1313.4201,490.9412,1317.1608,486.6977,1308.43,491.2555" style="stroke: #A80036; stroke-width: 1.0;"/><text fill="#000000" font-family="sans-serif" font-size="13" lengthAdjust="spacingAndGlyphs" textLength="39" x="1611" y="318.0669">Player</text><text fill="#000000" font-family="sans-serif" font-size="13" lengthAdjust="spacingAndGlyphs" textLength="7" x="1316.8913" y="484.8806">*</text><!--link Role to ContactPersonRole--><path d="M818.476,69.732 C989.574,81.876 1354.97,112.754 1390,157 C1433.69,212.176 1337.19,343.87 1332,350 C1317.95,366.59 1297.46,380.131 1280.87,389.373 " fill="none" id="Role-ContactPersonRole" style="stroke: #A80036; stroke-width: 1.0;"/><polygon fill="#A80036" points="1276.31,391.865,1286.1276,391.0808,1280.7029,389.477,1282.3067,384.0522,1276.31,391.865" style="stroke: #A80036; stroke-width: 1.0;"/><text fill="#000000" font-family="sans-serif" font-size="13" lengthAdjust="spacingAndGlyphs" textLength="121" x="1388" y="265.0669">ContactPersonRole</text><text fill="#000000" font-family="sans-serif" font-size="13" lengthAdjust="spacingAndGlyphs" textLength="8" x="1273.6041" y="380.8668">1</text><!--link Role to CounterpartyRisk--><path d="M818.417,67.348 C949.911,74.357 1189.2,95.437 1245,157 C1280.39,196.043 1270.22,265.369 1263.19,296.757 " fill="none" id="Role-CounterpartyRisk" style="stroke: #A80036; stroke-width: 1.0;"/><polygon fill="#A80036" points="1262.01,301.81,1267.9512,293.9549,1263.1466,296.9409,1260.1606,292.1363,1262.01,301.81" style="stroke: #A80036; stroke-width: 1.0;"/><text fill="#000000" font-family="sans-serif" font-size="13" lengthAdjust="spacingAndGlyphs" textLength="109" x="1271" y="197.0669">CounterpartyRisk</text><text fill="#000000" font-family="sans-serif" font-size="13" lengthAdjust="spacingAndGlyphs" textLength="24" x="1233.618" y="291.0505">0..1</text><!--link Role to Entry--><path d="M811.546,85.569 C922.531,115.289 1116.49,167.227 1184.55,185.453 " fill="none" id="Role-Entry" style="stroke: #A80036; stroke-width: 1.0;"/><polygon fill="#A80036" points="1189.61,186.808,1181.9418,180.6275,1184.7783,185.5218,1179.8839,188.3583,1189.61,186.808" style="stroke: #A80036; stroke-width: 1.0;"/><text fill="#000000" font-family="sans-serif" font-size="13" lengthAdjust="spacingAndGlyphs" textLength="33" x="986" y="129.0669">Entry</text><text fill="#000000" font-family="sans-serif" font-size="13" lengthAdjust="spacingAndGlyphs" textLength="8" x="1174.0552" y="178.9485">1</text><!--link TradePartyRole to Account--><path d="M780.504,216.927 C846.284,230.977 914.418,251.407 933,278 C956.664,311.867 930.822,362.267 914.783,387.471 " fill="none" id="TradePartyRole-Account" style="stroke: #A80036; stroke-width: 1.0;"/><polygon fill="#A80036" points="911.917,391.874,920.1802,386.515,914.6455,387.6841,913.4764,382.1494,911.917,391.874" style="stroke: #A80036; stroke-width: 1.0;"/><text fill="#000000" font-family="sans-serif" font-size="13" lengthAdjust="spacingAndGlyphs" textLength="52" x="944" y="318.0669">Account</text><text fill="#000000" font-family="sans-serif" font-size="13" lengthAdjust="spacingAndGlyphs" textLength="7" x="905.0057" y="380.8789">*</text><!--link TradePartyRole to Trade--><path d="M711.004,222.075 C748.283,237.584 794.645,257.766 835,278 C848.008,284.522 862.125,292.557 873.499,299.283 " fill="none" id="TradePartyRole-Trade" style="stroke: #A80036; stroke-width: 1.0;"/><polygon fill="#A80036" points="877.875,301.886,872.1832,293.8484,873.5772,299.3308,868.0948,300.7248,877.875,301.886" style="stroke: #A80036; stroke-width: 1.0;"/><text fill="#000000" font-family="sans-serif" font-size="13" lengthAdjust="spacingAndGlyphs" textLength="36" x="816" y="265.0669">Trade</text><text fill="#000000" font-family="sans-serif" font-size="13" lengthAdjust="spacingAndGlyphs" textLength="7" x="861.9258" y="290.895">*</text><!--link Entry to Account--><path d="M1196.29,205.057 C1165.16,231.834 1082.1,301.522 1006,350 C982.216,365.152 953.609,379.725 932.752,389.742 " fill="none" id="Entry-Account" style="stroke: #A80036; stroke-width: 1.0;"/><polygon fill="#A80036" points="928.158,391.935,938.0032,391.6664,932.67,389.7805,934.5559,384.4472,928.158,391.935" style="stroke: #A80036; stroke-width: 1.0;"/><text fill="#000000" font-family="sans-serif" font-size="13" lengthAdjust="spacingAndGlyphs" textLength="52" x="1106" y="318.0669">Account</text><text fill="#000000" font-family="sans-serif" font-size="13" lengthAdjust="spacingAndGlyphs" textLength="7" x="926.8295" y="380.9609">*</text><!--link Account to Account--><path d="M932.508,396.332 C950.181,394.483 967,397.039 967,404 C967,410.254 953.424,412.952 937.85,412.095 " fill="none" id="Account-Account" style="stroke: #A80036; stroke-width: 1.0;"/><polygon fill="#A80036" points="932.508,411.668,941.1605,416.3727,937.4921,412.0666,941.7982,408.3981,932.508,411.668" style="stroke: #A80036; stroke-width: 1.0;"/><text fill="#000000" font-family="sans-serif" font-size="13" lengthAdjust="spacingAndGlyphs" textLength="94" x="973" y="408.0669">ParentAccount</text><text fill="#000000" font-family="sans-serif" font-size="13" lengthAdjust="spacingAndGlyphs" textLength="8" x="940.7741" y="407.5427">1</text></g></svg>